<svg width="770" height="432" viewBox="0 0 770 432" fill="none" xmlns="http://www.w3.org/2000/svg">
<rect width="770" height="432" fill="#F4F4F4"/>
<rect x="30" y="78" width="230" height="276" rx="8" fill="black"/>
<path d="M49.511 105.853C58.8933 105.853 64.1364 111.175 64.1364 119.493C64.1364 127.89 58.8933 134 49.7081 134H40.9566V105.853H49.511ZM45.2141 130.413H49.787C55.4637 130.413 59.8789 126.707 59.8789 119.493C59.8789 112.594 55.4637 109.44 49.6687 109.44H45.2141V130.413ZM70.105 110.071H65.8475V105.853H70.105V110.071ZM65.7687 134V113.619H69.8291V134H65.7687ZM84.2308 119.729C83.9943 117.285 81.9838 116.339 80.0127 116.339C78.1599 116.339 76.4254 117.404 76.4254 118.98C76.4254 120.478 77.8445 121.346 79.7367 121.819C80.6829 122.055 81.5501 122.252 82.4568 122.489C85.65 123.317 88.4883 124.854 88.4883 128.166C88.4883 132.344 84.2308 134.512 80.2886 134.512C76.5042 134.512 72.2467 132.778 71.8525 127.811H75.8735C76.3071 130.216 77.8051 131.241 80.3675 131.241C82.3386 131.241 84.4673 130.531 84.4673 128.402C84.4673 126.707 82.851 126.155 81.0377 125.682C80.0915 125.446 79.106 125.209 78.1599 124.933C75.0062 124.145 72.4438 122.292 72.4438 119.138C72.4438 115.354 76.2282 113.107 80.131 113.107C84.3096 113.107 87.7393 115.314 88.1729 119.729H84.2308ZM108.881 127.574C107.817 131.99 104.584 134.512 99.6565 134.512C93.428 134.512 89.0916 130.137 89.0916 123.829C89.0916 117.482 93.428 113.107 99.6565 113.107C104.781 113.107 107.896 115.984 108.723 119.927H104.781C104.032 117.995 102.574 116.379 99.5777 116.379C95.6356 116.379 93.1126 119.651 93.1126 123.829C93.1126 127.969 95.6356 131.201 99.5777 131.201C102.298 131.201 104.072 129.94 104.9 127.574H108.881ZM119.971 134.512C113.861 134.512 109.603 130.018 109.603 123.829C109.603 117.64 113.861 113.107 119.971 113.107C126.081 113.107 130.299 117.64 130.299 123.829C130.299 130.018 126.081 134.512 119.971 134.512ZM113.624 123.829C113.624 127.85 116.147 131.162 119.971 131.162C123.755 131.162 126.318 127.85 126.318 123.829C126.318 119.769 123.755 116.457 119.971 116.457C116.147 116.457 113.624 119.769 113.624 123.829ZM133.698 113.619C135.511 119.099 137.325 124.46 139.138 129.94H139.178C140.833 124.736 142.765 119.059 144.539 113.619H148.875C146.352 120.4 143.869 127.22 141.346 134H136.852C134.329 127.22 131.845 120.4 129.322 113.619H133.698ZM167.404 127.969C166.261 132.187 162.792 134.512 158.101 134.512C152.03 134.512 147.97 130.137 147.97 123.711C147.97 117.561 152.227 113.107 158.061 113.107C165.118 113.107 167.68 118.665 167.72 124.184V124.933H151.872C152.188 128.836 154.632 131.201 158.061 131.201C160.584 131.201 162.713 130.216 163.423 127.969H167.404ZM151.912 121.898H163.699C163.383 118.665 161.57 116.339 158.061 116.339C154.592 116.339 152.385 118.586 151.912 121.898ZM173.648 113.619V117.561C174.712 114.644 176.762 113.501 179.758 113.501V117.325C179.561 117.325 178.654 117.364 178.063 117.522C175.895 117.877 173.687 118.941 173.687 124.539V134H169.627V113.619H173.648ZM183.912 113.619C185.962 119.138 187.933 124.381 189.944 129.861H190.023C191.718 124.657 193.61 119.099 195.423 113.619H199.72C195.699 124.578 194.753 126.746 190.614 137.982C189.707 140.426 188.17 141.884 185.41 141.884H182.296V138.573H184.543C186.356 138.573 186.751 137.627 187.303 136.208L187.973 134.512C185.056 127.18 182.335 120.478 179.615 113.619H183.912ZM58.7356 149.853V153.44H45.2141V161.956H57.9078V165.503H45.2141V174.413H58.8539V178H40.9566V149.853H58.7356ZM62.9322 157.619C64.7455 163.099 66.5589 168.46 68.3723 173.94H68.4117C70.0674 168.736 71.9991 163.059 73.773 157.619H78.1094C75.5864 164.4 73.1029 171.22 70.5799 178H66.0859C63.5629 171.22 61.0794 164.4 58.5564 157.619H62.9322ZM96.6383 171.969C95.4951 176.187 92.026 178.512 87.3349 178.512C81.264 178.512 77.2036 174.137 77.2036 167.711C77.2036 161.561 81.4611 157.107 87.2955 157.107C94.3519 157.107 96.9143 162.665 96.9537 168.184V168.933H81.1063C81.4217 172.836 83.8658 175.201 87.2955 175.201C89.8184 175.201 91.9472 174.216 92.6568 171.969H96.6383ZM81.1458 165.898H92.9327C92.6174 162.665 90.804 160.339 87.2955 160.339C83.8264 160.339 81.6188 162.586 81.1458 165.898ZM102.882 157.619V161.561C103.946 158.644 105.996 157.501 108.992 157.501V161.325C108.795 161.325 107.889 161.364 107.297 161.522C105.129 161.877 102.921 162.941 102.921 168.539V178H98.861V157.619H102.882ZM113.146 157.619C115.196 163.138 117.167 168.381 119.178 173.861H119.257C120.952 168.657 122.844 163.099 124.657 157.619H128.954C124.933 168.578 123.987 170.746 119.848 181.982C118.941 184.426 117.404 185.884 114.644 185.884H111.53V182.573H113.777C115.59 182.573 115.985 181.627 116.537 180.208L117.207 178.512C114.29 171.18 111.569 164.478 108.849 157.619H113.146ZM133.809 178L127.975 157.619H132.193L135.15 169.17C135.544 170.746 135.78 172.126 136.175 173.742H136.214C136.608 172.166 136.845 170.746 137.239 169.091L140.235 157.619H145.281L148.238 169.091C148.632 170.589 148.987 172.244 149.341 173.782H149.381C149.736 172.284 150.09 170.668 150.445 169.091L153.362 157.619H157.541L151.667 178H146.976L143.783 166.055L142.758 161.837H142.679C142.364 163.256 142.088 164.557 141.694 166.055L138.5 178H133.809ZM158.355 178V149.853H162.376V161.325C163.44 158.999 165.333 157.107 168.486 157.107C173.808 157.107 175.819 160.615 175.819 165.03V178H171.798V165.701C171.798 162.31 170.497 160.576 167.698 160.576C164.781 160.576 162.415 163.059 162.415 168.263V178H158.355ZM196.847 171.969C195.704 176.187 192.235 178.512 187.544 178.512C181.473 178.512 177.412 174.137 177.412 167.711C177.412 161.561 181.67 157.107 187.504 157.107C194.561 157.107 197.123 162.665 197.162 168.184V168.933H181.315C181.63 172.836 184.075 175.201 187.504 175.201C190.027 175.201 192.156 174.216 192.866 171.969H196.847ZM181.355 165.898H193.142C192.826 162.665 191.013 160.339 187.504 160.339C184.035 160.339 181.828 162.586 181.355 165.898ZM203.091 157.619V161.561C204.155 158.644 206.205 157.501 209.201 157.501V161.325C209.004 161.325 208.097 161.364 207.506 161.522C205.338 161.877 203.13 162.941 203.13 168.539V178H199.07V157.619H203.091ZM228.515 171.969C227.372 176.187 223.903 178.512 219.212 178.512C213.141 178.512 209.08 174.137 209.08 167.711C209.08 161.561 213.338 157.107 219.172 157.107C226.229 157.107 228.791 162.665 228.83 168.184V168.933H212.983C213.298 172.836 215.743 175.201 219.172 175.201C221.695 175.201 223.824 174.216 224.534 171.969H228.515ZM213.023 165.898H224.809C224.494 162.665 222.681 160.339 219.172 160.339C215.703 160.339 213.496 162.586 213.023 165.898Z" fill="white"/>
<path d="M38.945 339V331.245H40.475V332.655C40.88 331.77 41.6 331.05 42.8 331.05C44.825 331.05 45.59 332.385 45.59 334.065V339H44.06V334.32C44.06 333.03 43.565 332.37 42.5 332.37C41.39 332.37 40.49 333.315 40.49 335.295V339H38.945ZM50.8914 339.195C48.5664 339.195 46.9464 337.485 46.9464 335.13C46.9464 332.775 48.5664 331.05 50.8914 331.05C53.2164 331.05 54.8214 332.775 54.8214 335.13C54.8214 337.485 53.2164 339.195 50.8914 339.195ZM48.4764 335.13C48.4764 336.66 49.4364 337.92 50.8914 337.92C52.3314 337.92 53.3064 336.66 53.3064 335.13C53.3064 333.585 52.3314 332.325 50.8914 332.325C49.4364 332.325 48.4764 333.585 48.4764 335.13ZM63.7543 331.05C65.9143 331.05 67.3243 332.67 67.3243 335.1C67.3243 337.53 65.8993 339.18 63.7393 339.18C62.3743 339.18 61.4593 338.295 61.1743 337.56H61.1593V342H59.5993V331.245H61.1593V332.73H61.1743C61.4443 331.965 62.3593 331.05 63.7543 331.05ZM61.0693 335.1C61.0693 336.57 61.8193 337.905 63.4243 337.905C64.9843 337.905 65.7793 336.705 65.7793 335.1C65.7793 333.51 64.9543 332.325 63.4243 332.325C61.8343 332.325 61.0693 333.66 61.0693 335.1ZM68.7099 333.6C68.8899 332.415 69.8799 331.035 71.9049 331.035C74.6199 331.035 75.0999 332.73 75.0999 334.17V337.32C75.0999 337.905 75.1449 338.58 75.2199 339H73.6149C73.5849 338.67 73.5849 338.355 73.5849 337.98V337.65H73.5699C73.3449 338.265 72.6999 339.195 71.0499 339.195C69.2499 339.195 68.3349 338.055 68.3349 336.885C68.3349 334.71 71.0349 334.59 72.1749 334.395C73.1799 334.23 73.5699 333.99 73.5699 333.345C73.5699 332.7 72.9699 332.28 71.9349 332.28C71.0499 332.28 70.3899 332.79 70.2099 333.6H68.7099ZM69.8649 336.855C69.8649 337.53 70.4649 337.98 71.3949 337.98C72.5049 337.98 73.5999 337.275 73.5999 335.4V334.455C73.4349 334.92 73.0599 335.355 71.5749 335.61C70.4799 335.82 69.8649 336.135 69.8649 336.855ZM82.5834 331.245H84.1584V338.325C84.1584 340.74 82.4184 341.94 80.4534 341.94C78.4584 341.94 76.9884 340.92 76.8084 339.285H78.3384C78.4884 340.305 79.2834 340.695 80.4534 340.695C81.6684 340.695 82.5834 340.035 82.5834 338.415V337.485H82.5684C82.2384 338.37 81.5034 339.09 80.0484 339.09C77.8734 339.09 76.4484 337.425 76.4484 335.055C76.4484 332.7 77.8584 331.05 80.0484 331.05C81.4884 331.05 82.2834 331.845 82.5684 332.565H82.5834V331.245ZM77.9934 335.055C77.9934 336.51 78.7284 337.815 80.3334 337.815C82.1034 337.815 82.6734 336.255 82.6734 335.055C82.6734 333.885 81.8934 332.325 80.3334 332.325C78.7734 332.325 77.9934 333.63 77.9934 335.055ZM92.9694 336.705C92.5344 338.31 91.2144 339.195 89.4294 339.195C87.1194 339.195 85.5744 337.53 85.5744 335.085C85.5744 332.745 87.1944 331.05 89.4144 331.05C92.0994 331.05 93.0744 333.165 93.0894 335.265V335.55H87.0594C87.1794 337.035 88.1094 337.935 89.4144 337.935C90.3744 337.935 91.1844 337.56 91.4544 336.705H92.9694ZM87.0744 334.395H91.5594C91.4394 333.165 90.7494 332.28 89.4144 332.28C88.0944 332.28 87.2544 333.135 87.0744 334.395ZM99.5843 329.895H97.9643V328.29H99.5843V329.895ZM97.9343 339V331.245H99.4793V339H97.9343ZM105.709 333.57C105.619 332.64 104.854 332.28 104.104 332.28C103.399 332.28 102.739 332.685 102.739 333.285C102.739 333.855 103.279 334.185 103.999 334.365C104.359 334.455 104.689 334.53 105.034 334.62C106.249 334.935 107.329 335.52 107.329 336.78C107.329 338.37 105.709 339.195 104.209 339.195C102.769 339.195 101.149 338.535 100.999 336.645H102.529C102.694 337.56 103.264 337.95 104.239 337.95C104.989 337.95 105.799 337.68 105.799 336.87C105.799 336.225 105.184 336.015 104.494 335.835C104.134 335.745 103.759 335.655 103.399 335.55C102.199 335.25 101.224 334.545 101.224 333.345C101.224 331.905 102.664 331.05 104.149 331.05C105.739 331.05 107.044 331.89 107.209 333.57H105.709ZM112.084 333.6C112.264 332.415 113.254 331.035 115.279 331.035C117.994 331.035 118.474 332.73 118.474 334.17V337.32C118.474 337.905 118.519 338.58 118.594 339H116.989C116.959 338.67 116.959 338.355 116.959 337.98V337.65H116.944C116.719 338.265 116.074 339.195 114.424 339.195C112.624 339.195 111.709 338.055 111.709 336.885C111.709 334.71 114.409 334.59 115.549 334.395C116.554 334.23 116.944 333.99 116.944 333.345C116.944 332.7 116.344 332.28 115.309 332.28C114.424 332.28 113.764 332.79 113.584 333.6H112.084ZM113.239 336.855C113.239 337.53 113.839 337.98 114.769 337.98C115.879 337.98 116.974 337.275 116.974 335.4V334.455C116.809 334.92 116.434 335.355 114.949 335.61C113.854 335.82 113.239 336.135 113.239 336.855ZM126.762 331.05C128.142 331.05 129.072 331.965 129.342 332.73H129.357V328.29H130.917V339H129.342V337.56H129.327C129.042 338.295 128.142 339.18 126.762 339.18C124.602 339.18 123.192 337.53 123.192 335.1C123.192 332.67 124.602 331.05 126.762 331.05ZM124.722 335.1C124.722 336.705 125.517 337.905 127.077 337.905C128.682 337.905 129.432 336.57 129.432 335.1C129.432 333.66 128.667 332.325 127.077 332.325C125.562 332.325 124.722 333.51 124.722 335.1ZM139.727 336.705C139.292 338.31 137.972 339.195 136.187 339.195C133.877 339.195 132.332 337.53 132.332 335.085C132.332 332.745 133.952 331.05 136.172 331.05C138.857 331.05 139.832 333.165 139.847 335.265V335.55H133.817C133.937 337.035 134.867 337.935 136.172 337.935C137.132 337.935 137.942 337.56 138.212 336.705H139.727ZM133.832 334.395H138.317C138.197 333.165 137.507 332.28 136.172 332.28C134.852 332.28 134.012 333.135 133.832 334.395ZM141.293 333.6C141.473 332.415 142.463 331.035 144.488 331.035C147.203 331.035 147.683 332.73 147.683 334.17V337.32C147.683 337.905 147.728 338.58 147.803 339H146.198C146.168 338.67 146.168 338.355 146.168 337.98V337.65H146.153C145.928 338.265 145.283 339.195 143.633 339.195C141.833 339.195 140.918 338.055 140.918 336.885C140.918 334.71 143.618 334.59 144.758 334.395C145.763 334.23 146.153 333.99 146.153 333.345C146.153 332.7 145.553 332.28 144.518 332.28C143.633 332.28 142.973 332.79 142.793 333.6H141.293ZM142.448 336.855C142.448 337.53 143.048 337.98 143.978 337.98C145.088 337.98 146.183 337.275 146.183 335.4V334.455C146.018 334.92 145.643 335.355 144.158 335.61C143.063 335.82 142.448 336.135 142.448 336.855ZM152.601 331.05C153.981 331.05 154.911 331.965 155.181 332.73H155.196V328.29H156.756V339H155.181V337.56H155.166C154.881 338.295 153.981 339.18 152.601 339.18C150.441 339.18 149.031 337.53 149.031 335.1C149.031 332.67 150.441 331.05 152.601 331.05ZM150.561 335.1C150.561 336.705 151.356 337.905 152.916 337.905C154.521 337.905 155.271 336.57 155.271 335.1C155.271 333.66 154.506 332.325 152.916 332.325C151.401 332.325 150.561 333.51 150.561 335.1ZM168.936 336.705C168.501 338.31 167.181 339.195 165.396 339.195C163.086 339.195 161.541 337.53 161.541 335.085C161.541 332.745 163.161 331.05 165.381 331.05C168.066 331.05 169.041 333.165 169.056 335.265V335.55H163.026C163.146 337.035 164.076 337.935 165.381 337.935C166.341 337.935 167.151 337.56 167.421 336.705H168.936ZM163.041 334.395H167.526C167.406 333.165 166.716 332.28 165.381 332.28C164.061 332.28 163.221 333.135 163.041 334.395ZM170.532 339V331.245H172.062V332.655C172.467 331.77 173.187 331.05 174.387 331.05C176.412 331.05 177.177 332.385 177.177 334.065V339H175.647V334.32C175.647 333.03 175.152 332.37 174.087 332.37C172.977 332.37 172.077 333.315 172.077 335.295V339H170.532ZM182.103 331.05C183.483 331.05 184.413 331.965 184.683 332.73H184.698V328.29H186.258V339H184.683V337.56H184.668C184.383 338.295 183.483 339.18 182.103 339.18C179.943 339.18 178.533 337.53 178.533 335.1C178.533 332.67 179.943 331.05 182.103 331.05ZM180.063 335.1C180.063 336.705 180.858 337.905 182.418 337.905C184.023 337.905 184.773 336.57 184.773 335.1C184.773 333.66 184.008 332.325 182.418 332.325C180.903 332.325 180.063 333.51 180.063 335.1ZM188.094 337.14H189.849V339H188.094V337.14Z" fill="white"/>
<rect x="270.5" y="78.5" width="229" height="275" rx="7.5" fill="white"/>
<rect x="270.5" y="78.5" width="229" height="275" rx="7.5" stroke="black"/>
<path d="M306.62 125.524C305.437 130.452 300.904 134.512 293.769 134.512C284.741 134.512 279.459 128.087 279.459 119.927C279.459 111.845 284.78 105.341 293.808 105.341C300.864 105.341 304.885 109.046 306.62 114.329H302.362C300.864 110.86 298.263 108.928 293.808 108.928C287.303 108.928 283.716 113.935 283.716 119.927C283.716 125.919 287.264 130.925 293.808 130.925C298.42 130.925 301.259 128.678 302.402 125.524H306.62ZM308.922 126.589V113.619H312.943V125.919C312.943 129.309 314.244 131.043 317.043 131.043C319.96 131.043 322.325 128.56 322.325 123.356V113.619H326.385V134H322.364V130.294C321.3 132.62 319.408 134.512 316.254 134.512C310.932 134.512 308.922 131.004 308.922 126.589ZM329.398 105.853H333.459V134H329.398V105.853ZM341.401 127.653C341.401 129.624 342.229 130.728 344.003 130.728H345.382V134.039H343.411C339.075 134.039 337.419 131.516 337.419 128.047V116.852H334.305V113.619H337.419V108.889L341.401 107.115V113.619H345.343V116.852H341.401V127.653ZM346.973 126.589V113.619H350.994V125.919C350.994 129.309 352.294 131.043 355.093 131.043C358.011 131.043 360.376 128.56 360.376 123.356V113.619H364.436V134H360.415V130.294C359.351 132.62 357.459 134.512 354.305 134.512C348.983 134.512 346.973 131.004 346.973 126.589ZM371.47 113.619V117.561C372.535 114.644 374.584 113.501 377.581 113.501V117.325C377.383 117.325 376.477 117.364 375.885 117.522C373.717 117.877 371.51 118.941 371.51 124.539V134H367.449V113.619H371.47ZM396.895 127.969C395.751 132.187 392.282 134.512 387.591 134.512C381.52 134.512 377.46 130.137 377.46 123.711C377.46 117.561 381.717 113.107 387.552 113.107C394.608 113.107 397.17 118.665 397.21 124.184V124.933H381.362C381.678 128.836 384.122 131.201 387.552 131.201C390.075 131.201 392.203 130.216 392.913 127.969H396.895ZM381.402 121.898H393.189C392.874 118.665 391.06 116.339 387.552 116.339C384.083 116.339 381.875 118.586 381.402 121.898ZM280.957 178V149.853H298.499V153.44H285.214V161.956H297.395V165.503H285.214V178H280.957ZM304.292 154.071H300.034V149.853H304.292V154.071ZM299.956 178V157.619H304.016V178H299.956ZM311.322 157.619V161.561C312.386 158.644 314.436 157.501 317.432 157.501V161.325C317.235 161.325 316.328 161.364 315.737 161.522C313.569 161.877 311.361 162.941 311.361 168.539V178H307.301V157.619H311.322ZM329.959 163.729C329.723 161.285 327.712 160.339 325.741 160.339C323.888 160.339 322.154 161.404 322.154 162.98C322.154 164.478 323.573 165.346 325.465 165.819C326.411 166.055 327.279 166.252 328.185 166.489C331.378 167.317 334.217 168.854 334.217 172.166C334.217 176.344 329.959 178.512 326.017 178.512C322.233 178.512 317.975 176.778 317.581 171.811H321.602C322.036 174.216 323.534 175.241 326.096 175.241C328.067 175.241 330.196 174.531 330.196 172.402C330.196 170.707 328.579 170.155 326.766 169.682C325.82 169.446 324.834 169.209 323.888 168.933C320.735 168.145 318.172 166.292 318.172 163.138C318.172 159.354 321.957 157.107 325.859 157.107C330.038 157.107 333.468 159.314 333.901 163.729H329.959ZM340.931 171.653C340.931 173.624 341.759 174.728 343.533 174.728H344.913V178.039H342.942C338.605 178.039 336.95 175.516 336.95 172.047V160.852H333.835V157.619H336.95V152.889L340.931 151.115V157.619H344.873V160.852H340.931V171.653Z" fill="black"/>
<path d="M278.945 311.29H280.49V322H278.945V311.29ZM282.343 316.6C282.523 315.415 283.513 314.035 285.538 314.035C288.253 314.035 288.733 315.73 288.733 317.17V320.32C288.733 320.905 288.778 321.58 288.853 322H287.248C287.218 321.67 287.218 321.355 287.218 320.98V320.65H287.203C286.978 321.265 286.333 322.195 284.683 322.195C282.883 322.195 281.968 321.055 281.968 319.885C281.968 317.71 284.668 317.59 285.808 317.395C286.813 317.23 287.203 316.99 287.203 316.345C287.203 315.7 286.603 315.28 285.568 315.28C284.683 315.28 284.023 315.79 283.843 316.6H282.343ZM283.498 319.855C283.498 320.53 284.098 320.98 285.028 320.98C286.138 320.98 287.233 320.275 287.233 318.4V317.455C287.068 317.92 286.693 318.355 285.208 318.61C284.113 318.82 283.498 319.135 283.498 319.855ZM290.561 322V314.245H292.091V315.655C292.496 314.77 293.216 314.05 294.416 314.05C296.441 314.05 297.206 315.385 297.206 317.065V322H295.676V317.32C295.676 316.03 295.181 315.37 294.116 315.37C293.006 315.37 292.106 316.315 292.106 318.295V322H290.561ZM304.698 314.245H306.273V321.325C306.273 323.74 304.533 324.94 302.568 324.94C300.573 324.94 299.103 323.92 298.923 322.285H300.453C300.603 323.305 301.398 323.695 302.568 323.695C303.783 323.695 304.698 323.035 304.698 321.415V320.485H304.683C304.353 321.37 303.618 322.09 302.163 322.09C299.988 322.09 298.563 320.425 298.563 318.055C298.563 315.7 299.973 314.05 302.163 314.05C303.603 314.05 304.398 314.845 304.683 315.565H304.698V314.245ZM300.108 318.055C300.108 319.51 300.843 320.815 302.448 320.815C304.218 320.815 304.788 319.255 304.788 318.055C304.788 316.885 304.008 315.325 302.448 315.325C300.888 315.325 300.108 316.63 300.108 318.055ZM308.109 319.18V314.245H309.639V318.925C309.639 320.215 310.134 320.875 311.199 320.875C312.309 320.875 313.209 319.93 313.209 317.95V314.245H314.754V322H313.224V320.59C312.819 321.475 312.099 322.195 310.899 322.195C308.874 322.195 308.109 320.86 308.109 319.18ZM316.62 316.6C316.8 315.415 317.79 314.035 319.815 314.035C322.53 314.035 323.01 315.73 323.01 317.17V320.32C323.01 320.905 323.055 321.58 323.13 322H321.525C321.495 321.67 321.495 321.355 321.495 320.98V320.65H321.48C321.255 321.265 320.61 322.195 318.96 322.195C317.16 322.195 316.245 321.055 316.245 319.885C316.245 317.71 318.945 317.59 320.085 317.395C321.09 317.23 321.48 316.99 321.48 316.345C321.48 315.7 320.88 315.28 319.845 315.28C318.96 315.28 318.3 315.79 318.12 316.6H316.62ZM317.775 319.855C317.775 320.53 318.375 320.98 319.305 320.98C320.415 320.98 321.51 320.275 321.51 318.4V317.455C321.345 317.92 320.97 318.355 319.485 318.61C318.39 318.82 317.775 319.135 317.775 319.855ZM330.494 314.245H332.069V321.325C332.069 323.74 330.329 324.94 328.364 324.94C326.369 324.94 324.899 323.92 324.719 322.285H326.249C326.399 323.305 327.194 323.695 328.364 323.695C329.579 323.695 330.494 323.035 330.494 321.415V320.485H330.479C330.149 321.37 329.414 322.09 327.959 322.09C325.784 322.09 324.359 320.425 324.359 318.055C324.359 315.7 325.769 314.05 327.959 314.05C329.399 314.05 330.194 314.845 330.479 315.565H330.494V314.245ZM325.904 318.055C325.904 319.51 326.639 320.815 328.244 320.815C330.014 320.815 330.584 319.255 330.584 318.055C330.584 316.885 329.804 315.325 328.244 315.325C326.684 315.325 325.904 316.63 325.904 318.055ZM340.88 319.705C340.445 321.31 339.125 322.195 337.34 322.195C335.03 322.195 333.485 320.53 333.485 318.085C333.485 315.745 335.105 314.05 337.325 314.05C340.01 314.05 340.985 316.165 341 318.265V318.55H334.97C335.09 320.035 336.02 320.935 337.325 320.935C338.285 320.935 339.095 320.56 339.365 319.705H340.88ZM334.985 317.395H339.47C339.35 316.165 338.66 315.28 337.325 315.28C336.005 315.28 335.165 316.135 334.985 317.395ZM345.814 316.6C345.994 315.415 346.984 314.035 349.009 314.035C351.724 314.035 352.204 315.73 352.204 317.17V320.32C352.204 320.905 352.249 321.58 352.324 322H350.719C350.689 321.67 350.689 321.355 350.689 320.98V320.65H350.674C350.449 321.265 349.804 322.195 348.154 322.195C346.354 322.195 345.439 321.055 345.439 319.885C345.439 317.71 348.139 317.59 349.279 317.395C350.284 317.23 350.674 316.99 350.674 316.345C350.674 315.7 350.074 315.28 349.039 315.28C348.154 315.28 347.494 315.79 347.314 316.6H345.814ZM346.969 319.855C346.969 320.53 347.569 320.98 348.499 320.98C349.609 320.98 350.704 320.275 350.704 318.4V317.455C350.539 317.92 350.164 318.355 348.679 318.61C347.584 318.82 346.969 319.135 346.969 319.855ZM354.033 322V314.245H355.563V315.655C355.968 314.77 356.688 314.05 357.888 314.05C359.913 314.05 360.678 315.385 360.678 317.065V322H359.148V317.32C359.148 316.03 358.653 315.37 357.588 315.37C356.478 315.37 355.578 316.315 355.578 318.295V322H354.033ZM365.604 314.05C366.984 314.05 367.914 314.965 368.184 315.73H368.199V311.29H369.759V322H368.184V320.56H368.169C367.884 321.295 366.984 322.18 365.604 322.18C363.444 322.18 362.034 320.53 362.034 318.1C362.034 315.67 363.444 314.05 365.604 314.05ZM363.564 318.1C363.564 319.705 364.359 320.905 365.919 320.905C367.524 320.905 368.274 319.57 368.274 318.1C368.274 316.66 367.509 315.325 365.919 315.325C364.404 315.325 363.564 316.51 363.564 318.1ZM375.024 322V311.29H376.554V315.655C376.959 314.77 377.679 314.05 378.879 314.05C380.904 314.05 381.669 315.385 381.669 317.065V322H380.139V317.32C380.139 316.03 379.644 315.37 378.579 315.37C377.469 315.37 376.569 316.315 376.569 318.295V322H375.024ZM390.421 319.705C389.986 321.31 388.666 322.195 386.881 322.195C384.571 322.195 383.026 320.53 383.026 318.085C383.026 315.745 384.646 314.05 386.866 314.05C389.551 314.05 390.526 316.165 390.541 318.265V318.55H384.511C384.631 320.035 385.561 320.935 386.866 320.935C387.826 320.935 388.636 320.56 388.906 319.705H390.421ZM384.526 317.395H389.011C388.891 316.165 388.201 315.28 386.866 315.28C385.546 315.28 384.706 316.135 384.526 317.395ZM393.546 314.245V315.745C393.951 314.635 394.731 314.2 395.871 314.2V315.655C395.796 315.655 395.451 315.67 395.226 315.73C394.401 315.865 393.561 316.27 393.561 318.4V322H392.016V314.245H393.546ZM398.617 312.895H396.997V311.29H398.617V312.895ZM396.967 322V314.245H398.512V322H396.967ZM402.387 319.585C402.387 320.335 402.702 320.755 403.377 320.755H403.902V322.015H403.152C401.502 322.015 400.872 321.055 400.872 319.735V315.475H399.687V314.245H400.872V312.445L402.387 311.77V314.245H403.887V315.475H402.387V319.585ZM405.287 316.6C405.467 315.415 406.457 314.035 408.482 314.035C411.197 314.035 411.677 315.73 411.677 317.17V320.32C411.677 320.905 411.722 321.58 411.797 322H410.192C410.162 321.67 410.162 321.355 410.162 320.98V320.65H410.147C409.922 321.265 409.277 322.195 407.627 322.195C405.827 322.195 404.912 321.055 404.912 319.885C404.912 317.71 407.612 317.59 408.752 317.395C409.757 317.23 410.147 316.99 410.147 316.345C410.147 315.7 409.547 315.28 408.512 315.28C407.627 315.28 406.967 315.79 406.787 316.6H405.287ZM406.442 319.855C406.442 320.53 407.042 320.98 407.972 320.98C409.082 320.98 410.177 320.275 410.177 318.4V317.455C410.012 317.92 409.637 318.355 408.152 318.61C407.057 318.82 406.442 319.135 406.442 319.855ZM419.161 314.245H420.736V321.325C420.736 323.74 418.996 324.94 417.031 324.94C415.036 324.94 413.566 323.92 413.386 322.285H414.916C415.066 323.305 415.861 323.695 417.031 323.695C418.246 323.695 419.161 323.035 419.161 321.415V320.485H419.146C418.816 321.37 418.081 322.09 416.626 322.09C414.451 322.09 413.026 320.425 413.026 318.055C413.026 315.7 414.436 314.05 416.626 314.05C418.066 314.05 418.861 314.845 419.146 315.565H419.161V314.245ZM414.571 318.055C414.571 319.51 415.306 320.815 416.911 320.815C418.681 320.815 419.251 319.255 419.251 318.055C419.251 316.885 418.471 315.325 416.911 315.325C415.351 315.325 414.571 316.63 414.571 318.055ZM429.547 319.705C429.112 321.31 427.792 322.195 426.007 322.195C423.697 322.195 422.152 320.53 422.152 318.085C422.152 315.745 423.772 314.05 425.992 314.05C428.677 314.05 429.652 316.165 429.667 318.265V318.55H423.637C423.757 320.035 424.687 320.935 425.992 320.935C426.952 320.935 427.762 320.56 428.032 319.705H429.547ZM423.652 317.395H428.137C428.017 316.165 427.327 315.28 425.992 315.28C424.672 315.28 423.832 316.135 423.652 317.395ZM434.511 311.29H436.056V322H434.511V311.29ZM444.854 319.705C444.419 321.31 443.099 322.195 441.314 322.195C439.004 322.195 437.459 320.53 437.459 318.085C437.459 315.745 439.079 314.05 441.299 314.05C443.984 314.05 444.959 316.165 444.974 318.265V318.55H438.944C439.064 320.035 439.994 320.935 441.299 320.935C442.259 320.935 443.069 320.56 443.339 319.705H444.854ZM438.959 317.395H443.444C443.324 316.165 442.634 315.28 441.299 315.28C439.979 315.28 439.139 316.135 438.959 317.395ZM446.42 316.6C446.6 315.415 447.59 314.035 449.615 314.035C452.33 314.035 452.81 315.73 452.81 317.17V320.32C452.81 320.905 452.855 321.58 452.93 322H451.325C451.295 321.67 451.295 321.355 451.295 320.98V320.65H451.28C451.055 321.265 450.41 322.195 448.76 322.195C446.96 322.195 446.045 321.055 446.045 319.885C446.045 317.71 448.745 317.59 449.885 317.395C450.89 317.23 451.28 316.99 451.28 316.345C451.28 315.7 450.68 315.28 449.645 315.28C448.76 315.28 448.1 315.79 447.92 316.6H446.42ZM447.575 319.855C447.575 320.53 448.175 320.98 449.105 320.98C450.215 320.98 451.31 320.275 451.31 318.4V317.455C451.145 317.92 450.77 318.355 449.285 318.61C448.19 318.82 447.575 319.135 447.575 319.855ZM457.728 314.05C459.108 314.05 460.038 314.965 460.308 315.73H460.323V311.29H461.883V322H460.308V320.56H460.293C460.008 321.295 459.108 322.18 457.728 322.18C455.568 322.18 454.158 320.53 454.158 318.1C454.158 315.67 455.568 314.05 457.728 314.05ZM455.688 318.1C455.688 319.705 456.483 320.905 458.043 320.905C459.648 320.905 460.398 319.57 460.398 318.1C460.398 316.66 459.633 315.325 458.043 315.325C456.528 315.325 455.688 316.51 455.688 318.1ZM469.008 319.585C469.008 320.335 469.323 320.755 469.998 320.755H470.523V322.015H469.773C468.123 322.015 467.493 321.055 467.493 319.735V315.475H466.308V314.245H467.493V312.445L469.008 311.77V314.245H470.508V315.475H469.008V319.585ZM471.792 322V311.29H473.322V315.655C473.727 314.77 474.447 314.05 475.647 314.05C477.672 314.05 478.437 315.385 478.437 317.065V322H476.907V317.32C476.907 316.03 476.412 315.37 475.347 315.37C474.237 315.37 473.337 316.315 473.337 318.295V322H471.792ZM487.188 319.705C486.753 321.31 485.433 322.195 483.648 322.195C481.338 322.195 479.793 320.53 479.793 318.085C479.793 315.745 481.413 314.05 483.633 314.05C486.318 314.05 487.293 316.165 487.308 318.265V318.55H481.278C481.398 320.035 482.328 320.935 483.633 320.935C484.593 320.935 485.403 320.56 485.673 319.705H487.188ZM481.293 317.395H485.778C485.658 316.165 484.968 315.28 483.633 315.28C482.313 315.28 481.473 316.135 481.293 317.395ZM283.175 333.57C283.085 332.64 282.32 332.28 281.57 332.28C280.865 332.28 280.205 332.685 280.205 333.285C280.205 333.855 280.745 334.185 281.465 334.365C281.825 334.455 282.155 334.53 282.5 334.62C283.715 334.935 284.795 335.52 284.795 336.78C284.795 338.37 283.175 339.195 281.675 339.195C280.235 339.195 278.615 338.535 278.465 336.645H279.995C280.16 337.56 280.73 337.95 281.705 337.95C282.455 337.95 283.265 337.68 283.265 336.87C283.265 336.225 282.65 336.015 281.96 335.835C281.6 335.745 281.225 335.655 280.865 335.55C279.665 335.25 278.69 334.545 278.69 333.345C278.69 331.905 280.13 331.05 281.615 331.05C283.205 331.05 284.51 331.89 284.675 333.57H283.175ZM288.1 336.585C288.1 337.335 288.415 337.755 289.09 337.755H289.615V339.015H288.865C287.215 339.015 286.585 338.055 286.585 336.735V332.475H285.4V331.245H286.585V329.445L288.1 328.77V331.245H289.6V332.475H288.1V336.585ZM294.466 339.195C292.141 339.195 290.521 337.485 290.521 335.13C290.521 332.775 292.141 331.05 294.466 331.05C296.791 331.05 298.396 332.775 298.396 335.13C298.396 337.485 296.791 339.195 294.466 339.195ZM292.051 335.13C292.051 336.66 293.011 337.92 294.466 337.92C295.906 337.92 296.881 336.66 296.881 335.13C296.881 333.585 295.906 332.325 294.466 332.325C293.011 332.325 292.051 333.585 292.051 335.13ZM301.334 331.245V332.745C301.739 331.635 302.519 331.2 303.659 331.2V332.655C303.584 332.655 303.239 332.67 303.014 332.73C302.189 332.865 301.349 333.27 301.349 335.4V339H299.804V331.245H301.334ZM305.99 331.245C306.77 333.345 307.52 335.34 308.285 337.425H308.315C308.96 335.445 309.68 333.33 310.37 331.245H312.005C310.475 335.415 310.115 336.24 308.54 340.515C308.195 341.445 307.61 342 306.56 342H305.375V340.74H306.23C306.92 340.74 307.07 340.38 307.28 339.84L307.535 339.195C306.425 336.405 305.39 333.855 304.355 331.245H305.99ZM312.005 337.14H313.76V339H312.005V337.14Z" fill="black"/>
<rect x="510.5" y="78.5" width="229" height="275" rx="7.5" fill="white"/>
<rect x="510.5" y="78.5" width="229" height="275" rx="7.5" stroke="black"/>
<path d="M546.62 125.524C545.437 130.452 540.904 134.512 533.769 134.512C524.741 134.512 519.459 128.087 519.459 119.927C519.459 111.845 524.78 105.341 533.808 105.341C540.864 105.341 544.885 109.046 546.62 114.329H542.362C540.864 110.86 538.263 108.928 533.808 108.928C527.303 108.928 523.716 113.935 523.716 119.927C523.716 125.919 527.264 130.925 533.808 130.925C538.42 130.925 541.259 128.678 542.402 125.524H546.62ZM558.186 134.512C552.075 134.512 547.818 130.018 547.818 123.829C547.818 117.64 552.075 113.107 558.186 113.107C564.296 113.107 568.514 117.64 568.514 123.829C568.514 130.018 564.296 134.512 558.186 134.512ZM551.839 123.829C551.839 127.85 554.362 131.162 558.186 131.162C561.97 131.162 564.533 127.85 564.533 123.829C564.533 119.769 561.97 116.457 558.186 116.457C554.362 116.457 551.839 119.769 551.839 123.829ZM570.245 134V113.619H574.266V117.049C574.739 115.157 576.71 113.107 579.509 113.107C582.663 113.107 584.555 114.368 585.501 117.088C586.723 114.447 588.497 113.107 591.296 113.107C596.303 113.107 598.432 116.615 598.432 121.03V134H594.411V121.701C594.411 118.31 593.189 116.576 590.744 116.576C588.221 116.576 586.329 119.099 586.329 124.066V134H582.348V121.701C582.348 118.31 581.52 116.576 578.721 116.576C575.252 116.576 574.306 120.124 574.306 124.263V134H570.245ZM601.267 134V113.619H605.288V117.049C605.761 115.157 607.732 113.107 610.531 113.107C613.684 113.107 615.576 114.368 616.523 117.088C617.745 114.447 619.519 113.107 622.318 113.107C627.324 113.107 629.453 116.615 629.453 121.03V134H625.432V121.701C625.432 118.31 624.21 116.576 621.766 116.576C619.243 116.576 617.35 119.099 617.35 124.066V134H613.369V121.701C613.369 118.31 612.541 116.576 609.742 116.576C606.273 116.576 605.327 120.124 605.327 124.263V134H601.267ZM650.461 127.969C649.318 132.187 645.849 134.512 641.158 134.512C635.087 134.512 631.026 130.137 631.026 123.711C631.026 117.561 635.284 113.107 641.118 113.107C648.175 113.107 650.737 118.665 650.776 124.184V124.933H634.929C635.244 128.836 637.688 131.201 641.118 131.201C643.641 131.201 645.77 130.216 646.479 127.969H650.461ZM634.968 121.898H646.755C646.44 118.665 644.627 116.339 641.118 116.339C637.649 116.339 635.441 118.586 634.968 121.898ZM656.705 113.619V117.561C657.769 114.644 659.819 113.501 662.815 113.501V117.325C662.618 117.325 661.711 117.364 661.12 117.522C658.952 117.877 656.744 118.941 656.744 124.539V134H652.684V113.619H656.705ZM682.484 127.574C681.419 131.99 678.187 134.512 673.259 134.512C667.031 134.512 662.694 130.137 662.694 123.829C662.694 117.482 667.031 113.107 673.259 113.107C678.384 113.107 681.498 115.984 682.326 119.927H678.384C677.635 117.995 676.176 116.379 673.18 116.379C669.238 116.379 666.715 119.651 666.715 123.829C666.715 127.969 669.238 131.201 673.18 131.201C675.9 131.201 677.674 129.94 678.502 127.574H682.484ZM702.64 127.969C701.497 132.187 698.028 134.512 693.337 134.512C687.266 134.512 683.206 130.137 683.206 123.711C683.206 117.561 687.463 113.107 693.298 113.107C700.354 113.107 702.916 118.665 702.956 124.184V124.933H687.108C687.424 128.836 689.868 131.201 693.298 131.201C695.82 131.201 697.949 130.216 698.659 127.969H702.64ZM687.148 121.898H698.935C698.619 118.665 696.806 116.339 693.298 116.339C689.828 116.339 687.621 118.586 687.148 121.898ZM524.82 154.071H520.562V149.853H524.82V154.071ZM520.484 178V157.619H524.544V178H520.484ZM527.829 178V157.619H531.85V161.325C532.914 158.999 534.806 157.107 537.96 157.107C543.282 157.107 545.293 160.615 545.293 165.03V178H541.272V165.701C541.272 162.31 539.971 160.576 537.172 160.576C534.255 160.576 531.889 163.059 531.889 168.263V178H527.829ZM581.167 169.524C579.985 174.452 575.451 178.512 568.316 178.512C559.289 178.512 554.006 172.087 554.006 163.927C554.006 155.845 559.328 149.341 568.356 149.341C575.412 149.341 579.433 153.046 581.167 158.329H576.91C575.412 154.86 572.81 152.928 568.356 152.928C561.851 152.928 558.264 157.935 558.264 163.927C558.264 169.919 561.812 174.925 568.356 174.925C572.968 174.925 575.806 172.678 576.949 169.524H581.167ZM592.733 178.512C586.623 178.512 582.366 174.018 582.366 167.829C582.366 161.64 586.623 157.107 592.733 157.107C598.844 157.107 603.062 161.64 603.062 167.829C603.062 174.018 598.844 178.512 592.733 178.512ZM586.387 167.829C586.387 171.85 588.909 175.162 592.733 175.162C596.518 175.162 599.08 171.85 599.08 167.829C599.08 163.769 596.518 160.457 592.733 160.457C588.909 160.457 586.387 163.769 586.387 167.829ZM604.793 178V157.619H608.814V161.325C609.878 158.999 611.77 157.107 614.924 157.107C620.246 157.107 622.257 160.615 622.257 165.03V178H618.236V165.701C618.236 162.31 616.935 160.576 614.136 160.576C611.219 160.576 608.853 163.059 608.853 168.263V178H604.793ZM630 171.653C630 173.624 630.828 174.728 632.602 174.728H633.982V178.039H632.011C627.674 178.039 626.019 175.516 626.019 172.047V160.852H622.904V157.619H626.019V152.889L630 151.115V157.619H633.942V160.852H630V171.653ZM653.826 171.969C652.682 176.187 649.213 178.512 644.522 178.512C638.451 178.512 634.391 174.137 634.391 167.711C634.391 161.561 638.648 157.107 644.483 157.107C651.539 157.107 654.102 162.665 654.141 168.184V168.933H638.294C638.609 172.836 641.053 175.201 644.483 175.201C647.006 175.201 649.135 174.216 649.844 171.969H653.826ZM638.333 165.898H650.12C649.805 162.665 647.991 160.339 644.483 160.339C641.014 160.339 638.806 162.586 638.333 165.898ZM653.463 178L660.796 167.593L653.818 157.619H658.549L663.161 164.4L667.773 157.619H672.504L665.526 167.553L672.858 178H668.128L663.161 170.746L658.194 178H653.463ZM679.793 171.653C679.793 173.624 680.62 174.728 682.394 174.728H683.774V178.039H681.803C677.467 178.039 675.811 175.516 675.811 172.047V160.852H672.697V157.619H675.811V152.889L679.793 151.115V157.619H683.735V160.852H679.793V171.653Z" fill="black"/>
<path d="M518.945 322V314.245H520.475V315.55C520.655 314.83 521.405 314.05 522.47 314.05C523.67 314.05 524.39 314.53 524.75 315.565C525.215 314.56 525.89 314.05 526.955 314.05C528.86 314.05 529.67 315.385 529.67 317.065V322H528.14V317.32C528.14 316.03 527.675 315.37 526.745 315.37C525.785 315.37 525.065 316.33 525.065 318.22V322H523.55V317.32C523.55 316.03 523.235 315.37 522.17 315.37C520.85 315.37 520.49 316.72 520.49 318.295V322H518.945ZM538.414 319.705C537.979 321.31 536.659 322.195 534.874 322.195C532.564 322.195 531.019 320.53 531.019 318.085C531.019 315.745 532.639 314.05 534.859 314.05C537.544 314.05 538.519 316.165 538.534 318.265V318.55H532.504C532.624 320.035 533.554 320.935 534.859 320.935C535.819 320.935 536.629 320.56 536.899 319.705H538.414ZM532.519 317.395H537.004C536.884 316.165 536.194 315.28 534.859 315.28C533.539 315.28 532.699 316.135 532.519 317.395ZM541.539 314.245V315.745C541.944 314.635 542.724 314.2 543.864 314.2V315.655C543.789 315.655 543.444 315.67 543.219 315.73C542.394 315.865 541.554 316.27 541.554 318.4V322H540.009V314.245H541.539ZM552.099 319.555C551.694 321.235 550.464 322.195 548.589 322.195C546.219 322.195 544.569 320.53 544.569 318.13C544.569 315.715 546.219 314.05 548.589 314.05C550.539 314.05 551.724 315.145 552.039 316.645H550.539C550.254 315.91 549.699 315.295 548.559 315.295C547.059 315.295 546.099 316.54 546.099 318.13C546.099 319.705 547.059 320.935 548.559 320.935C549.594 320.935 550.269 320.455 550.584 319.555H552.099ZM553.603 322V311.29H555.133V315.655C555.538 314.77 556.258 314.05 557.458 314.05C559.483 314.05 560.248 315.385 560.248 317.065V322H558.718V317.32C558.718 316.03 558.223 315.37 557.158 315.37C556.048 315.37 555.148 316.315 555.148 318.295V322H553.603ZM569.684 316.57C569.594 315.64 568.829 315.28 568.079 315.28C567.374 315.28 566.714 315.685 566.714 316.285C566.714 316.855 567.254 317.185 567.974 317.365C568.334 317.455 568.664 317.53 569.009 317.62C570.224 317.935 571.304 318.52 571.304 319.78C571.304 321.37 569.684 322.195 568.184 322.195C566.744 322.195 565.124 321.535 564.974 319.645H566.504C566.669 320.56 567.239 320.95 568.214 320.95C568.964 320.95 569.774 320.68 569.774 319.87C569.774 319.225 569.159 319.015 568.469 318.835C568.109 318.745 567.734 318.655 567.374 318.55C566.174 318.25 565.199 317.545 565.199 316.345C565.199 314.905 566.639 314.05 568.124 314.05C569.714 314.05 571.019 314.89 571.184 316.57H569.684ZM572.719 322V311.29H574.249V315.655C574.654 314.77 575.374 314.05 576.574 314.05C578.599 314.05 579.364 315.385 579.364 317.065V322H577.834V317.32C577.834 316.03 577.339 315.37 576.274 315.37C575.164 315.37 574.264 316.315 574.264 318.295V322H572.719ZM584.666 322.195C582.341 322.195 580.721 320.485 580.721 318.13C580.721 315.775 582.341 314.05 584.666 314.05C586.991 314.05 588.596 315.775 588.596 318.13C588.596 320.485 586.991 322.195 584.666 322.195ZM582.251 318.13C582.251 319.66 583.211 320.92 584.666 320.92C586.106 320.92 587.081 319.66 587.081 318.13C587.081 316.585 586.106 315.325 584.666 315.325C583.211 315.325 582.251 316.585 582.251 318.13ZM591.37 322L589.15 314.245H590.755L591.88 318.64C592.03 319.24 592.12 319.765 592.27 320.38H592.285C592.435 319.78 592.525 319.24 592.675 318.61L593.815 314.245H595.735L596.86 318.61C597.01 319.18 597.145 319.81 597.28 320.395H597.295C597.43 319.825 597.565 319.21 597.7 318.61L598.81 314.245H600.4L598.165 322H596.38L595.165 317.455L594.775 315.85H594.745C594.625 316.39 594.52 316.885 594.37 317.455L593.155 322H591.37ZM605.69 316.57C605.6 315.64 604.835 315.28 604.085 315.28C603.38 315.28 602.72 315.685 602.72 316.285C602.72 316.855 603.26 317.185 603.98 317.365C604.34 317.455 604.67 317.53 605.015 317.62C606.23 317.935 607.31 318.52 607.31 319.78C607.31 321.37 605.69 322.195 604.19 322.195C602.75 322.195 601.13 321.535 600.98 319.645H602.51C602.675 320.56 603.245 320.95 604.22 320.95C604.97 320.95 605.78 320.68 605.78 319.87C605.78 319.225 605.165 319.015 604.475 318.835C604.115 318.745 603.74 318.655 603.38 318.55C602.18 318.25 601.205 317.545 601.205 316.345C601.205 314.905 602.645 314.05 604.13 314.05C605.72 314.05 607.025 314.89 607.19 316.57H605.69ZM612.034 319.18V314.245H613.564V318.925C613.564 320.215 614.059 320.875 615.124 320.875C616.234 320.875 617.134 319.93 617.134 317.95V314.245H618.679V322H617.149V320.59C616.744 321.475 616.024 322.195 614.824 322.195C612.799 322.195 612.034 320.86 612.034 319.18ZM624.731 314.05C626.891 314.05 628.301 315.67 628.301 318.1C628.301 320.53 626.876 322.18 624.716 322.18C623.351 322.18 622.436 321.295 622.151 320.56H622.136V325H620.576V314.245H622.136V315.73H622.151C622.421 314.965 623.336 314.05 624.731 314.05ZM622.046 318.1C622.046 319.57 622.796 320.905 624.401 320.905C625.961 320.905 626.756 319.705 626.756 318.1C626.756 316.51 625.931 315.325 624.401 315.325C622.811 315.325 622.046 316.66 622.046 318.1ZM640.001 319.705C639.566 321.31 638.246 322.195 636.461 322.195C634.151 322.195 632.606 320.53 632.606 318.085C632.606 315.745 634.226 314.05 636.446 314.05C639.131 314.05 640.106 316.165 640.121 318.265V318.55H634.091C634.211 320.035 635.141 320.935 636.446 320.935C637.406 320.935 638.216 320.56 638.486 319.705H640.001ZM634.106 317.395H638.591C638.471 316.165 637.781 315.28 636.446 315.28C635.126 315.28 634.286 316.135 634.106 317.395ZM640.613 322L643.403 318.04L640.748 314.245H642.548L644.303 316.825L646.058 314.245H647.858L645.203 318.025L647.993 322H646.193L644.303 319.24L642.413 322H640.613ZM648.905 316.6C649.085 315.415 650.075 314.035 652.1 314.035C654.815 314.035 655.295 315.73 655.295 317.17V320.32C655.295 320.905 655.34 321.58 655.415 322H653.81C653.78 321.67 653.78 321.355 653.78 320.98V320.65H653.765C653.54 321.265 652.895 322.195 651.245 322.195C649.445 322.195 648.53 321.055 648.53 319.885C648.53 317.71 651.23 317.59 652.37 317.395C653.375 317.23 653.765 316.99 653.765 316.345C653.765 315.7 653.165 315.28 652.13 315.28C651.245 315.28 650.585 315.79 650.405 316.6H648.905ZM650.06 319.855C650.06 320.53 650.66 320.98 651.59 320.98C652.7 320.98 653.795 320.275 653.795 318.4V317.455C653.63 317.92 653.255 318.355 651.77 318.61C650.675 318.82 650.06 319.135 650.06 319.855ZM664.174 319.555C663.769 321.235 662.539 322.195 660.664 322.195C658.294 322.195 656.644 320.53 656.644 318.13C656.644 315.715 658.294 314.05 660.664 314.05C662.614 314.05 663.799 315.145 664.114 316.645H662.614C662.329 315.91 661.774 315.295 660.634 315.295C659.134 315.295 658.174 316.54 658.174 318.13C658.174 319.705 659.134 320.935 660.634 320.935C661.669 320.935 662.344 320.455 662.659 319.555H664.174ZM667.568 319.585C667.568 320.335 667.883 320.755 668.558 320.755H669.083V322.015H668.333C666.683 322.015 666.053 321.055 666.053 319.735V315.475H664.868V314.245H666.053V312.445L667.568 311.77V314.245H669.068V315.475H667.568V319.585ZM670.351 311.29H671.896V322H670.351V311.29ZM674.574 314.245C675.354 316.345 676.104 318.34 676.869 320.425H676.899C677.544 318.445 678.264 316.33 678.954 314.245H680.589C679.059 318.415 678.699 319.24 677.124 323.515C676.779 324.445 676.194 325 675.144 325H673.959V323.74H674.814C675.504 323.74 675.654 323.38 675.864 322.84L676.119 322.195C675.009 319.405 673.974 316.855 672.939 314.245H674.574ZM686.409 322L684.189 314.245H685.794L686.919 318.64C687.069 319.24 687.159 319.765 687.309 320.38H687.324C687.474 319.78 687.564 319.24 687.714 318.61L688.854 314.245H690.774L691.899 318.61C692.049 319.18 692.184 319.81 692.319 320.395H692.334C692.469 319.825 692.604 319.21 692.739 318.61L693.849 314.245H695.439L693.204 322H691.419L690.204 317.455L689.814 315.85H689.784C689.664 316.39 689.559 316.885 689.409 317.455L688.194 322H686.409ZM696.499 322V311.29H698.029V315.655C698.434 314.77 699.154 314.05 700.354 314.05C702.379 314.05 703.144 315.385 703.144 317.065V322H701.614V317.32C701.614 316.03 701.119 315.37 700.054 315.37C698.944 315.37 698.044 316.315 698.044 318.295V322H696.499ZM711.895 319.705C711.46 321.31 710.14 322.195 708.355 322.195C706.045 322.195 704.5 320.53 704.5 318.085C704.5 315.745 706.12 314.05 708.34 314.05C711.025 314.05 712 316.165 712.015 318.265V318.55H705.985C706.105 320.035 707.035 320.935 708.34 320.935C709.3 320.935 710.11 320.56 710.38 319.705H711.895ZM706 317.395H710.485C710.365 316.165 709.675 315.28 708.34 315.28C707.02 315.28 706.18 316.135 706 317.395ZM713.491 322V314.245H715.021V315.655C715.426 314.77 716.146 314.05 717.346 314.05C719.371 314.05 720.136 315.385 720.136 317.065V322H718.606V317.32C718.606 316.03 718.111 315.37 717.046 315.37C715.936 315.37 715.036 316.315 715.036 318.295V322H713.491ZM520.595 329.895H518.975V328.29H520.595V329.895ZM518.945 339V331.245H520.49V339H518.945ZM522.49 339V331.245H524.02V332.655C524.425 331.77 525.145 331.05 526.345 331.05C528.37 331.05 529.135 332.385 529.135 334.065V339H527.605V334.32C527.605 333.03 527.11 332.37 526.045 332.37C524.935 332.37 524.035 333.315 524.035 335.295V339H522.49ZM532.831 336.585C532.831 337.335 533.146 337.755 533.821 337.755H534.346V339.015H533.596C531.946 339.015 531.316 338.055 531.316 336.735V332.475H530.131V331.245H531.316V329.445L532.831 328.77V331.245H534.331V332.475H532.831V336.585ZM542.647 336.705C542.212 338.31 540.892 339.195 539.107 339.195C536.797 339.195 535.252 337.53 535.252 335.085C535.252 332.745 536.872 331.05 539.092 331.05C541.777 331.05 542.752 333.165 542.767 335.265V335.55H536.737C536.857 337.035 537.787 337.935 539.092 337.935C540.052 337.935 540.862 337.56 541.132 336.705H542.647ZM536.752 334.395H541.237C541.117 333.165 540.427 332.28 539.092 332.28C537.772 332.28 536.932 333.135 536.752 334.395ZM545.773 331.245V332.745C546.178 331.635 546.958 331.2 548.098 331.2V332.655C548.023 332.655 547.678 332.67 547.453 332.73C546.628 332.865 545.788 333.27 545.788 335.4V339H544.243V331.245H545.773ZM556.197 336.705C555.762 338.31 554.442 339.195 552.657 339.195C550.347 339.195 548.802 337.53 548.802 335.085C548.802 332.745 550.422 331.05 552.642 331.05C555.327 331.05 556.302 333.165 556.317 335.265V335.55H550.287C550.407 337.035 551.337 337.935 552.642 337.935C553.602 337.935 554.412 337.56 554.682 336.705H556.197ZM550.302 334.395H554.787C554.667 333.165 553.977 332.28 552.642 332.28C551.322 332.28 550.482 333.135 550.302 334.395ZM562.023 333.57C561.933 332.64 561.168 332.28 560.418 332.28C559.713 332.28 559.053 332.685 559.053 333.285C559.053 333.855 559.593 334.185 560.313 334.365C560.673 334.455 561.003 334.53 561.348 334.62C562.563 334.935 563.643 335.52 563.643 336.78C563.643 338.37 562.023 339.195 560.523 339.195C559.083 339.195 557.463 338.535 557.313 336.645H558.843C559.008 337.56 559.578 337.95 560.553 337.95C561.303 337.95 562.113 337.68 562.113 336.87C562.113 336.225 561.498 336.015 560.808 335.835C560.448 335.745 560.073 335.655 559.713 335.55C558.513 335.25 557.538 334.545 557.538 333.345C557.538 331.905 558.978 331.05 560.463 331.05C562.053 331.05 563.358 331.89 563.523 333.57H562.023ZM566.948 336.585C566.948 337.335 567.263 337.755 567.938 337.755H568.463V339.015H567.713C566.063 339.015 565.433 338.055 565.433 336.735V332.475H564.248V331.245H565.433V329.445L566.948 328.77V331.245H568.448V332.475H566.948V336.585ZM577.402 331.05C579.562 331.05 580.972 332.67 580.972 335.1C580.972 337.53 579.547 339.18 577.387 339.18C576.022 339.18 575.107 338.295 574.822 337.56H574.807V342H573.247V331.245H574.807V332.73H574.822C575.092 331.965 576.007 331.05 577.402 331.05ZM574.717 335.1C574.717 336.57 575.467 337.905 577.072 337.905C578.632 337.905 579.427 336.705 579.427 335.1C579.427 333.51 578.602 332.325 577.072 332.325C575.482 332.325 574.717 333.66 574.717 335.1ZM589.302 336.705C588.867 338.31 587.547 339.195 585.762 339.195C583.452 339.195 581.907 337.53 581.907 335.085C581.907 332.745 583.527 331.05 585.747 331.05C588.432 331.05 589.407 333.165 589.422 335.265V335.55H583.392C583.512 337.035 584.442 337.935 585.747 337.935C586.707 337.935 587.517 337.56 587.787 336.705H589.302ZM583.407 334.395H587.892C587.772 333.165 587.082 332.28 585.747 332.28C584.427 332.28 583.587 333.135 583.407 334.395ZM590.868 333.6C591.048 332.415 592.038 331.035 594.063 331.035C596.778 331.035 597.258 332.73 597.258 334.17V337.32C597.258 337.905 597.303 338.58 597.378 339H595.773C595.743 338.67 595.743 338.355 595.743 337.98V337.65H595.728C595.503 338.265 594.858 339.195 593.208 339.195C591.408 339.195 590.493 338.055 590.493 336.885C590.493 334.71 593.193 334.59 594.333 334.395C595.338 334.23 595.728 333.99 595.728 333.345C595.728 332.7 595.128 332.28 594.093 332.28C593.208 332.28 592.548 332.79 592.368 333.6H590.868ZM592.023 336.855C592.023 337.53 592.623 337.98 593.553 337.98C594.663 337.98 595.758 337.275 595.758 335.4V334.455C595.593 334.92 595.218 335.355 593.733 335.61C592.638 335.82 592.023 336.135 592.023 336.855ZM600.632 339H599.087V328.29H600.632V334.545L603.842 331.245H605.702L602.462 334.545L605.822 339H603.932L601.397 335.595L600.632 336.33V339ZM611.154 333.57C611.064 332.64 610.299 332.28 609.549 332.28C608.844 332.28 608.184 332.685 608.184 333.285C608.184 333.855 608.724 334.185 609.444 334.365C609.804 334.455 610.134 334.53 610.479 334.62C611.694 334.935 612.774 335.52 612.774 336.78C612.774 338.37 611.154 339.195 609.654 339.195C608.214 339.195 606.594 338.535 606.444 336.645H607.974C608.139 337.56 608.709 337.95 609.684 337.95C610.434 337.95 611.244 337.68 611.244 336.87C611.244 336.225 610.629 336.015 609.939 335.835C609.579 335.745 609.204 335.655 608.844 335.55C607.644 335.25 606.669 334.545 606.669 333.345C606.669 331.905 608.109 331.05 609.594 331.05C611.184 331.05 612.489 331.89 612.654 333.57H611.154ZM614.276 337.14H616.031V339H614.276V337.14Z" fill="black"/>
</svg>
