<svg width="770" height="432" viewBox="0 0 770 432" fill="none" xmlns="http://www.w3.org/2000/svg">
<rect width="770" height="432" fill="#F4F4F4"/>
<rect x="10.5" y="290.5" width="179" height="131" rx="7.5" fill="white"/>
<rect x="10.5" y="290.5" width="179" height="131" rx="7.5" stroke="black"/>
<path d="M19.3797 328.022V324.474L31.7581 306.853H35.6213V324.672H38.8145V328.022H35.6213V335H31.6004V328.022H19.3797ZM23.3219 324.672H31.6004V312.924H31.4821L23.3219 324.672ZM50.2171 335H46.1961V314.501H39.4157V311.663C43.2001 311.663 45.9202 310.953 46.8663 306.853H50.2171V335ZM60.5286 319.744C62.4602 319.744 63.6034 317.457 63.6034 314.659C63.6034 311.86 62.4602 309.731 60.5286 309.731C58.5575 309.731 57.4143 311.899 57.4143 314.659C57.4143 317.457 58.5575 319.744 60.5286 319.744ZM53.9058 314.698C53.9058 310.638 56.1528 306.814 60.5286 306.814C64.8649 306.814 67.1119 310.638 67.1119 314.698C67.1119 318.719 64.8649 322.701 60.5286 322.701C56.1528 322.701 53.9058 318.719 53.9058 314.698ZM63.0515 335.039H66.5995L77.4403 306.774H73.8924L63.0515 335.039ZM73.6953 327.392C73.6953 323.371 75.9423 319.547 80.2787 319.547C84.615 319.547 86.9015 323.371 86.9015 327.392C86.9015 331.452 84.615 335.434 80.2787 335.434C75.9423 335.434 73.6953 331.413 73.6953 327.392ZM77.2038 327.352C77.2038 330.151 78.3076 332.516 80.2787 332.516C82.2497 332.516 83.3535 330.151 83.3535 327.352C83.3535 324.593 82.2497 322.503 80.2787 322.503C78.3076 322.503 77.2038 324.593 77.2038 327.352Z" fill="black"/>
<path d="M23.1 365.05C25.26 365.05 26.67 366.67 26.67 369.1C26.67 371.53 25.245 373.18 23.085 373.18C21.72 373.18 20.805 372.295 20.52 371.56H20.505V373H18.945V362.29H20.505V366.73H20.52C20.79 365.965 21.705 365.05 23.1 365.05ZM20.415 369.1C20.415 370.57 21.165 371.905 22.77 371.905C24.33 371.905 25.125 370.705 25.125 369.1C25.125 367.51 24.3 366.325 22.77 366.325C21.18 366.325 20.415 367.66 20.415 369.1ZM28.0856 362.29H29.6306V373H28.0856V362.29ZM31.4834 367.6C31.6634 366.415 32.6534 365.035 34.6784 365.035C37.3934 365.035 37.8734 366.73 37.8734 368.17V371.32C37.8734 371.905 37.9184 372.58 37.9934 373H36.3884C36.3584 372.67 36.3584 372.355 36.3584 371.98V371.65H36.3434C36.1184 372.265 35.4734 373.195 33.8234 373.195C32.0234 373.195 31.1084 372.055 31.1084 370.885C31.1084 368.71 33.8084 368.59 34.9484 368.395C35.9534 368.23 36.3434 367.99 36.3434 367.345C36.3434 366.7 35.7434 366.28 34.7084 366.28C33.8234 366.28 33.1634 366.79 32.9834 367.6H31.4834ZM32.6384 370.855C32.6384 371.53 33.2384 371.98 34.1684 371.98C35.2784 371.98 36.3734 371.275 36.3734 369.4V368.455C36.2084 368.92 35.8334 369.355 34.3484 369.61C33.2534 369.82 32.6384 370.135 32.6384 370.855ZM39.7018 373V365.245H41.2318V366.55C41.4118 365.83 42.1618 365.05 43.2268 365.05C44.4268 365.05 45.1468 365.53 45.5068 366.565C45.9718 365.56 46.6468 365.05 47.7118 365.05C49.6168 365.05 50.4268 366.385 50.4268 368.065V373H48.8968V368.32C48.8968 367.03 48.4318 366.37 47.5018 366.37C46.5418 366.37 45.8218 367.33 45.8218 369.22V373H44.3068V368.32C44.3068 367.03 43.9918 366.37 42.9268 366.37C41.6068 366.37 41.2468 367.72 41.2468 369.295V373H39.7018ZM59.1705 370.705C58.7355 372.31 57.4155 373.195 55.6305 373.195C53.3205 373.195 51.7755 371.53 51.7755 369.085C51.7755 366.745 53.3955 365.05 55.6155 365.05C58.3005 365.05 59.2755 367.165 59.2905 369.265V369.55H53.2605C53.3805 371.035 54.3105 371.935 55.6155 371.935C56.5755 371.935 57.3855 371.56 57.6555 370.705H59.1705ZM53.2755 368.395H57.7605C57.6405 367.165 56.9505 366.28 55.6155 366.28C54.2955 366.28 53.4555 367.135 53.2755 368.395ZM65.9954 370.585C65.9954 371.335 66.3104 371.755 66.9854 371.755H67.5104V373.015H66.7604C65.1104 373.015 64.4804 372.055 64.4804 370.735V366.475H63.2954V365.245H64.4804V363.445L65.9954 362.77V365.245H67.4954V366.475H65.9954V370.585ZM68.779 373V362.29H70.309V366.655C70.714 365.77 71.434 365.05 72.634 365.05C74.659 365.05 75.424 366.385 75.424 368.065V373H73.894V368.32C73.894 367.03 73.399 366.37 72.334 366.37C71.224 366.37 70.324 367.315 70.324 369.295V373H68.779ZM77.2304 367.6C77.4104 366.415 78.4004 365.035 80.4254 365.035C83.1404 365.035 83.6204 366.73 83.6204 368.17V371.32C83.6204 371.905 83.6654 372.58 83.7404 373H82.1354C82.1054 372.67 82.1054 372.355 82.1054 371.98V371.65H82.0904C81.8654 372.265 81.2204 373.195 79.5704 373.195C77.7704 373.195 76.8554 372.055 76.8554 370.885C76.8554 368.71 79.5554 368.59 80.6954 368.395C81.7004 368.23 82.0904 367.99 82.0904 367.345C82.0904 366.7 81.4904 366.28 80.4554 366.28C79.5704 366.28 78.9104 366.79 78.7304 367.6H77.2304ZM78.3854 370.855C78.3854 371.53 78.9854 371.98 79.9154 371.98C81.0254 371.98 82.1204 371.275 82.1204 369.4V368.455C81.9554 368.92 81.5804 369.355 80.0954 369.61C79.0004 369.82 78.3854 370.135 78.3854 370.855ZM87.3089 370.585C87.3089 371.335 87.6239 371.755 88.2989 371.755H88.8239V373.015H88.0739C86.4239 373.015 85.7939 372.055 85.7939 370.735V366.475H84.6089V365.245H85.7939V363.445L87.3089 362.77V365.245H88.8089V366.475H87.3089V370.585ZM96.6981 365.05C98.0781 365.05 99.0081 365.965 99.2781 366.73H99.2931V362.29H100.853V373H99.2781V371.56H99.2631C98.9781 372.295 98.0781 373.18 96.6981 373.18C94.5381 373.18 93.1281 371.53 93.1281 369.1C93.1281 366.67 94.5381 365.05 96.6981 365.05ZM94.6581 369.1C94.6581 370.705 95.4531 371.905 97.0131 371.905C98.6181 371.905 99.3681 370.57 99.3681 369.1C99.3681 367.66 98.6031 366.325 97.0131 366.325C95.4981 366.325 94.6581 367.51 94.6581 369.1ZM109.664 370.705C109.229 372.31 107.909 373.195 106.124 373.195C103.814 373.195 102.269 371.53 102.269 369.085C102.269 366.745 103.889 365.05 106.109 365.05C108.794 365.05 109.769 367.165 109.784 369.265V369.55H103.754C103.874 371.035 104.804 371.935 106.109 371.935C107.069 371.935 107.879 371.56 108.149 370.705H109.664ZM103.769 368.395H108.254C108.134 367.165 107.444 366.28 106.109 366.28C104.789 366.28 103.949 367.135 103.769 368.395ZM118.309 370.555C117.904 372.235 116.674 373.195 114.799 373.195C112.429 373.195 110.779 371.53 110.779 369.13C110.779 366.715 112.429 365.05 114.799 365.05C116.749 365.05 117.934 366.145 118.249 367.645H116.749C116.464 366.91 115.909 366.295 114.769 366.295C113.269 366.295 112.309 367.54 112.309 369.13C112.309 370.705 113.269 371.935 114.769 371.935C115.804 371.935 116.479 371.455 116.794 370.555H118.309ZM119.814 362.29H121.359V373H119.814V362.29ZM124.892 363.895H123.272V362.29H124.892V363.895ZM123.242 373V365.245H124.787V373H123.242ZM126.787 373V365.245H128.317V366.655C128.722 365.77 129.442 365.05 130.642 365.05C132.667 365.05 133.432 366.385 133.432 368.065V373H131.902V368.32C131.902 367.03 131.407 366.37 130.342 366.37C129.232 366.37 128.332 367.315 128.332 369.295V373H126.787ZM142.183 370.705C141.748 372.31 140.428 373.195 138.643 373.195C136.333 373.195 134.788 371.53 134.788 369.085C134.788 366.745 136.408 365.05 138.628 365.05C141.313 365.05 142.288 367.165 142.303 369.265V369.55H136.273C136.393 371.035 137.323 371.935 138.628 371.935C139.588 371.935 140.398 371.56 140.668 370.705H142.183ZM136.288 368.395H140.773C140.653 367.165 139.963 366.28 138.628 366.28C137.308 366.28 136.468 367.135 136.288 368.395ZM150.613 373.195C148.288 373.195 146.668 371.485 146.668 369.13C146.668 366.775 148.288 365.05 150.613 365.05C152.938 365.05 154.543 366.775 154.543 369.13C154.543 371.485 152.938 373.195 150.613 373.195ZM148.198 369.13C148.198 370.66 149.158 371.92 150.613 371.92C152.053 371.92 153.028 370.66 153.028 369.13C153.028 367.585 152.053 366.325 150.613 366.325C149.158 366.325 148.198 367.585 148.198 369.13ZM155.952 373V365.245H157.482V366.655C157.887 365.77 158.607 365.05 159.807 365.05C161.832 365.05 162.597 366.385 162.597 368.065V373H161.067V368.32C161.067 367.03 160.572 366.37 159.507 366.37C158.397 366.37 157.497 367.315 157.497 369.295V373H155.952ZM167.772 367.6C167.952 366.415 168.942 365.035 170.967 365.035C173.682 365.035 174.162 366.73 174.162 368.17V371.32C174.162 371.905 174.207 372.58 174.282 373H172.677C172.647 372.67 172.647 372.355 172.647 371.98V371.65H172.632C172.407 372.265 171.762 373.195 170.112 373.195C168.312 373.195 167.397 372.055 167.397 370.885C167.397 368.71 170.097 368.59 171.237 368.395C172.242 368.23 172.632 367.99 172.632 367.345C172.632 366.7 172.032 366.28 170.997 366.28C170.112 366.28 169.452 366.79 169.272 367.6H167.772ZM168.927 370.855C168.927 371.53 169.527 371.98 170.457 371.98C171.567 371.98 172.662 371.275 172.662 369.4V368.455C172.497 368.92 172.122 369.355 170.637 369.61C169.542 369.82 168.927 370.135 168.927 370.855ZM18.945 379.29H20.49V390H18.945V379.29ZM22.3427 384.6C22.5227 383.415 23.5127 382.035 25.5377 382.035C28.2527 382.035 28.7327 383.73 28.7327 385.17V388.32C28.7327 388.905 28.7777 389.58 28.8527 390H27.2477C27.2177 389.67 27.2177 389.355 27.2177 388.98V388.65H27.2027C26.9777 389.265 26.3327 390.195 24.6827 390.195C22.8827 390.195 21.9677 389.055 21.9677 387.885C21.9677 385.71 24.6677 385.59 25.8077 385.395C26.8127 385.23 27.2027 384.99 27.2027 384.345C27.2027 383.7 26.6027 383.28 25.5677 383.28C24.6827 383.28 24.0227 383.79 23.8427 384.6H22.3427ZM23.4977 387.855C23.4977 388.53 24.0977 388.98 25.0277 388.98C26.1377 388.98 27.2327 388.275 27.2327 386.4V385.455C27.0677 385.92 26.6927 386.355 25.2077 386.61C24.1127 386.82 23.4977 387.135 23.4977 387.855ZM37.6112 387.555C37.2062 389.235 35.9762 390.195 34.1012 390.195C31.7312 390.195 30.0812 388.53 30.0812 386.13C30.0812 383.715 31.7312 382.05 34.1012 382.05C36.0512 382.05 37.2362 383.145 37.5512 384.645H36.0512C35.7662 383.91 35.2112 383.295 34.0712 383.295C32.5712 383.295 31.6112 384.54 31.6112 386.13C31.6112 387.705 32.5712 388.935 34.0712 388.935C35.1062 388.935 35.7812 388.455 36.0962 387.555H37.6112ZM40.6609 390H39.1159V379.29H40.6609V385.545L43.8709 382.245H45.7309L42.4909 385.545L45.8509 390H43.9609L41.4259 386.595L40.6609 387.33V390ZM53.787 390.195C51.462 390.195 49.842 388.485 49.842 386.13C49.842 383.775 51.462 382.05 53.787 382.05C56.112 382.05 57.717 383.775 57.717 386.13C57.717 388.485 56.112 390.195 53.787 390.195ZM51.372 386.13C51.372 387.66 52.332 388.92 53.787 388.92C55.227 388.92 56.202 387.66 56.202 386.13C56.202 384.585 55.227 383.325 53.787 383.325C52.332 383.325 51.372 384.585 51.372 386.13ZM59.6357 381.525C59.6357 380.31 60.2057 379.29 61.7357 379.29H62.6057V380.535H62.1407C61.5107 380.535 61.1657 380.745 61.1657 381.6V382.245H62.4707V383.475H61.1657V390H59.6357V383.475H58.5707V382.245H59.6357V381.525ZM70.662 390.195C68.337 390.195 66.717 388.485 66.717 386.13C66.717 383.775 68.337 382.05 70.662 382.05C72.987 382.05 74.592 383.775 74.592 386.13C74.592 388.485 72.987 390.195 70.662 390.195ZM68.247 386.13C68.247 387.66 69.207 388.92 70.662 388.92C72.102 388.92 73.077 387.66 73.077 386.13C73.077 384.585 72.102 383.325 70.662 383.325C69.207 383.325 68.247 384.585 68.247 386.13ZM76.0007 390V382.245H77.5307V383.655C77.9357 382.77 78.6557 382.05 79.8557 382.05C81.8807 382.05 82.6457 383.385 82.6457 385.065V390H81.1157V385.32C81.1157 384.03 80.6207 383.37 79.5557 383.37C78.4457 383.37 77.5457 384.315 77.5457 386.295V390H76.0007ZM90.1371 382.245H91.7121V389.325C91.7121 391.74 89.9721 392.94 88.0071 392.94C86.0121 392.94 84.5421 391.92 84.3621 390.285H85.8921C86.0421 391.305 86.8371 391.695 88.0071 391.695C89.2221 391.695 90.1371 391.035 90.1371 389.415V388.485H90.1221C89.7921 389.37 89.0571 390.09 87.6021 390.09C85.4271 390.09 84.0021 388.425 84.0021 386.055C84.0021 383.7 85.4121 382.05 87.6021 382.05C89.0421 382.05 89.8371 382.845 90.1221 383.565H90.1371V382.245ZM85.5471 386.055C85.5471 387.51 86.2821 388.815 87.8871 388.815C89.6571 388.815 90.2271 387.255 90.2271 386.055C90.2271 384.885 89.4471 383.325 87.8871 383.325C86.3271 383.325 85.5471 384.63 85.5471 386.055ZM97.0731 390.195C94.7481 390.195 93.1281 388.485 93.1281 386.13C93.1281 383.775 94.7481 382.05 97.0731 382.05C99.3981 382.05 101.003 383.775 101.003 386.13C101.003 388.485 99.3981 390.195 97.0731 390.195ZM94.6581 386.13C94.6581 387.66 95.6181 388.92 97.0731 388.92C98.5131 388.92 99.4881 387.66 99.4881 386.13C99.4881 384.585 98.5131 383.325 97.0731 383.325C95.6181 383.325 94.6581 384.585 94.6581 386.13ZM104.062 380.895H102.442V379.29H104.062V380.895ZM102.412 390V382.245H103.957V390H102.412ZM105.957 390V382.245H107.487V383.655C107.892 382.77 108.612 382.05 109.812 382.05C111.837 382.05 112.602 383.385 112.602 385.065V390H111.072V385.32C111.072 384.03 110.577 383.37 109.512 383.37C108.402 383.37 107.502 384.315 107.502 386.295V390H105.957ZM120.093 382.245H121.668V389.325C121.668 391.74 119.928 392.94 117.963 392.94C115.968 392.94 114.498 391.92 114.318 390.285H115.848C115.998 391.305 116.793 391.695 117.963 391.695C119.178 391.695 120.093 391.035 120.093 389.415V388.485H120.078C119.748 389.37 119.013 390.09 117.558 390.09C115.383 390.09 113.958 388.425 113.958 386.055C113.958 383.7 115.368 382.05 117.558 382.05C118.998 382.05 119.793 382.845 120.078 383.565H120.093V382.245ZM115.503 386.055C115.503 387.51 116.238 388.815 117.843 388.815C119.613 388.815 120.183 387.255 120.183 386.055C120.183 384.885 119.403 383.325 117.843 383.325C116.283 383.325 115.503 384.63 115.503 386.055ZM25.86 404.705C25.425 406.31 24.105 407.195 22.32 407.195C20.01 407.195 18.465 405.53 18.465 403.085C18.465 400.745 20.085 399.05 22.305 399.05C24.99 399.05 25.965 401.165 25.98 403.265V403.55H19.95C20.07 405.035 21 405.935 22.305 405.935C23.265 405.935 24.075 405.56 24.345 404.705H25.86ZM19.965 402.395H24.45C24.33 401.165 23.64 400.28 22.305 400.28C20.985 400.28 20.145 401.135 19.965 402.395ZM27.4557 407V399.245H28.9857V400.655C29.3907 399.77 30.1107 399.05 31.3107 399.05C33.3357 399.05 34.1007 400.385 34.1007 402.065V407H32.5707V402.32C32.5707 401.03 32.0757 400.37 31.0107 400.37C29.9007 400.37 29.0007 401.315 29.0007 403.295V407H27.4557ZM41.5922 399.245H43.1672V406.325C43.1672 408.74 41.4272 409.94 39.4622 409.94C37.4672 409.94 35.9972 408.92 35.8172 407.285H37.3472C37.4972 408.305 38.2922 408.695 39.4622 408.695C40.6772 408.695 41.5922 408.035 41.5922 406.415V405.485H41.5772C41.2472 406.37 40.5122 407.09 39.0572 407.09C36.8822 407.09 35.4572 405.425 35.4572 403.055C35.4572 400.7 36.8672 399.05 39.0572 399.05C40.4972 399.05 41.2922 399.845 41.5772 400.565H41.5922V399.245ZM37.0022 403.055C37.0022 404.51 37.7372 405.815 39.3422 405.815C41.1122 405.815 41.6822 404.255 41.6822 403.055C41.6822 401.885 40.9022 400.325 39.3422 400.325C37.7822 400.325 37.0022 401.63 37.0022 403.055ZM45.0332 401.6C45.2132 400.415 46.2032 399.035 48.2282 399.035C50.9432 399.035 51.4232 400.73 51.4232 402.17V405.32C51.4232 405.905 51.4682 406.58 51.5432 407H49.9382C49.9082 406.67 49.9082 406.355 49.9082 405.98V405.65H49.8932C49.6682 406.265 49.0232 407.195 47.3732 407.195C45.5732 407.195 44.6582 406.055 44.6582 404.885C44.6582 402.71 47.3582 402.59 48.4982 402.395C49.5032 402.23 49.8932 401.99 49.8932 401.345C49.8932 400.7 49.2932 400.28 48.2582 400.28C47.3732 400.28 46.7132 400.79 46.5332 401.6H45.0332ZM46.1882 404.855C46.1882 405.53 46.7882 405.98 47.7182 405.98C48.8282 405.98 49.9232 405.275 49.9232 403.4V402.455C49.7582 402.92 49.3832 403.355 47.8982 403.61C46.8032 403.82 46.1882 404.135 46.1882 404.855ZM58.9066 399.245H60.4816V406.325C60.4816 408.74 58.7416 409.94 56.7766 409.94C54.7816 409.94 53.3116 408.92 53.1316 407.285H54.6616C54.8116 408.305 55.6066 408.695 56.7766 408.695C57.9916 408.695 58.9066 408.035 58.9066 406.415V405.485H58.8916C58.5616 406.37 57.8266 407.09 56.3716 407.09C54.1966 407.09 52.7716 405.425 52.7716 403.055C52.7716 400.7 54.1816 399.05 56.3716 399.05C57.8116 399.05 58.6066 399.845 58.8916 400.565H58.9066V399.245ZM54.3166 403.055C54.3166 404.51 55.0516 405.815 56.6566 405.815C58.4266 405.815 58.9966 404.255 58.9966 403.055C58.9966 401.885 58.2166 400.325 56.6566 400.325C55.0966 400.325 54.3166 401.63 54.3166 403.055ZM69.2926 404.705C68.8576 406.31 67.5376 407.195 65.7526 407.195C63.4426 407.195 61.8976 405.53 61.8976 403.085C61.8976 400.745 63.5176 399.05 65.7376 399.05C68.4226 399.05 69.3976 401.165 69.4126 403.265V403.55H63.3826C63.5026 405.035 64.4326 405.935 65.7376 405.935C66.6976 405.935 67.5076 405.56 67.7776 404.705H69.2926ZM63.3976 402.395H67.8826C67.7626 401.165 67.0726 400.28 65.7376 400.28C64.4176 400.28 63.5776 401.135 63.3976 402.395ZM70.8884 407V399.245H72.4184V400.55C72.5984 399.83 73.3484 399.05 74.4134 399.05C75.6134 399.05 76.3334 399.53 76.6934 400.565C77.1584 399.56 77.8334 399.05 78.8984 399.05C80.8034 399.05 81.6134 400.385 81.6134 402.065V407H80.0834V402.32C80.0834 401.03 79.6184 400.37 78.6884 400.37C77.7284 400.37 77.0084 401.33 77.0084 403.22V407H75.4934V402.32C75.4934 401.03 75.1784 400.37 74.1134 400.37C72.7934 400.37 72.4334 401.72 72.4334 403.295V407H70.8884ZM90.3571 404.705C89.9221 406.31 88.6021 407.195 86.8171 407.195C84.5071 407.195 82.9621 405.53 82.9621 403.085C82.9621 400.745 84.5821 399.05 86.8021 399.05C89.4871 399.05 90.4621 401.165 90.4771 403.265V403.55H84.4471C84.5671 405.035 85.4971 405.935 86.8021 405.935C87.7621 405.935 88.5721 405.56 88.8421 404.705H90.3571ZM84.4621 402.395H88.9471C88.8271 401.165 88.1371 400.28 86.8021 400.28C85.4821 400.28 84.6421 401.135 84.4621 402.395ZM91.9528 407V399.245H93.4828V400.655C93.8878 399.77 94.6078 399.05 95.8078 399.05C97.8328 399.05 98.5978 400.385 98.5978 402.065V407H97.0678V402.32C97.0678 401.03 96.5728 400.37 95.5078 400.37C94.3978 400.37 93.4978 401.315 93.4978 403.295V407H91.9528ZM102.294 404.585C102.294 405.335 102.609 405.755 103.284 405.755H103.809V407.015H103.059C101.409 407.015 100.779 406.055 100.779 404.735V400.475H99.5943V399.245H100.779V397.445L102.294 396.77V399.245H103.794V400.475H102.294V404.585ZM105.325 405.14H107.08V407H105.325V405.14Z" fill="black"/>
<rect x="200.5" y="256.5" width="179" height="165" rx="7.5" fill="#DDE3DE"/>
<rect x="200.5" y="256.5" width="179" height="165" rx="7.5" stroke="black"/>
<path d="M209.735 287.557C209.735 280.146 212.455 272.577 220.024 272.577C225.818 272.577 228.42 275.691 229.248 279.634H225.227C224.596 277.939 223.808 275.967 220.26 275.967C215.648 275.967 214.229 280.737 213.834 285.271C215.135 283.497 217.501 282.157 220.812 282.157C226.292 282.157 230.115 286.375 230.115 291.775C230.115 297.373 225.779 301.512 219.984 301.512C216.909 301.512 214.189 300.212 212.376 298.162C210.326 295.836 209.735 292.327 209.735 287.557ZM214.11 291.894C214.11 295.323 216.554 298.122 219.984 298.122C223.414 298.122 226.094 295.323 226.094 291.894C226.094 288.425 223.493 285.586 219.984 285.586C216.515 285.586 214.11 288.188 214.11 291.894ZM231.647 281.881C231.647 275.928 235.352 272.656 241.187 272.656C246.509 272.656 250.175 275.849 250.175 280.856C250.175 285.705 247.888 287.557 244.498 290.159C241.265 292.682 237.718 294.495 236.535 297.57H250.451V301H231.252C231.568 294.811 235.352 291.775 239.492 289.016C244.025 285.98 246.154 284.482 246.154 281.053C246.154 278.333 244.34 276.007 241.029 276.007C237.442 276.007 235.707 278.609 235.668 281.881H231.647ZM258.806 285.744C260.737 285.744 261.88 283.457 261.88 280.659C261.88 277.86 260.737 275.731 258.806 275.731C256.834 275.731 255.691 277.899 255.691 280.659C255.691 283.457 256.834 285.744 258.806 285.744ZM252.183 280.698C252.183 276.638 254.43 272.814 258.806 272.814C263.142 272.814 265.389 276.638 265.389 280.698C265.389 284.719 263.142 288.701 258.806 288.701C254.43 288.701 252.183 284.719 252.183 280.698ZM261.328 301.039H264.876L275.717 272.774H272.169L261.328 301.039ZM271.972 293.392C271.972 289.371 274.219 285.547 278.556 285.547C282.892 285.547 285.178 289.371 285.178 293.392C285.178 297.452 282.892 301.434 278.556 301.434C274.219 301.434 271.972 297.413 271.972 293.392ZM275.481 293.352C275.481 296.151 276.585 298.516 278.556 298.516C280.527 298.516 281.63 296.151 281.63 293.352C281.63 290.593 280.527 288.503 278.556 288.503C276.585 288.503 275.481 290.593 275.481 293.352Z" fill="black"/>
<path d="M212.035 365.05C213.415 365.05 214.345 365.965 214.615 366.73H214.63V362.29H216.19V373H214.615V371.56H214.6C214.315 372.295 213.415 373.18 212.035 373.18C209.875 373.18 208.465 371.53 208.465 369.1C208.465 366.67 209.875 365.05 212.035 365.05ZM209.995 369.1C209.995 370.705 210.79 371.905 212.35 371.905C213.955 371.905 214.705 370.57 214.705 369.1C214.705 367.66 213.94 366.325 212.35 366.325C210.835 366.325 209.995 367.51 209.995 369.1ZM219.736 363.895H218.116V362.29H219.736V363.895ZM218.086 373V365.245H219.631V373H218.086ZM224.721 365.05C226.101 365.05 227.031 365.965 227.301 366.73H227.316V362.29H228.876V373H227.301V371.56H227.286C227.001 372.295 226.101 373.18 224.721 373.18C222.561 373.18 221.151 371.53 221.151 369.1C221.151 366.67 222.561 365.05 224.721 365.05ZM222.681 369.1C222.681 370.705 223.476 371.905 225.036 371.905C226.641 371.905 227.391 370.57 227.391 369.1C227.391 367.66 226.626 366.325 225.036 366.325C223.521 366.325 222.681 367.51 222.681 369.1ZM230.771 373V365.245H232.301V366.655C232.706 365.77 233.426 365.05 234.626 365.05C236.651 365.05 237.416 366.385 237.416 368.065V373H235.886V368.32C235.886 367.03 235.391 366.37 234.326 366.37C233.216 366.37 232.316 367.315 232.316 369.295V373H230.771ZM238.935 362.26H240.645L239.505 365.965H238.125L238.935 362.26ZM244.13 370.585C244.13 371.335 244.445 371.755 245.12 371.755H245.645V373.015H244.895C243.245 373.015 242.615 372.055 242.615 370.735V366.475H241.43V365.245H242.615V363.445L244.13 362.77V365.245H245.63V366.475H244.13V370.585ZM251.974 373H250.429V362.29H251.974V368.545L255.184 365.245H257.044L253.804 368.545L257.164 373H255.274L252.739 369.595L251.974 370.33V373ZM258.266 373V365.245H259.796V366.655C260.201 365.77 260.921 365.05 262.121 365.05C264.146 365.05 264.911 366.385 264.911 368.065V373H263.381V368.32C263.381 367.03 262.886 366.37 261.821 366.37C260.711 366.37 259.811 367.315 259.811 369.295V373H258.266ZM270.213 373.195C267.888 373.195 266.268 371.485 266.268 369.13C266.268 366.775 267.888 365.05 270.213 365.05C272.538 365.05 274.143 366.775 274.143 369.13C274.143 371.485 272.538 373.195 270.213 373.195ZM267.798 369.13C267.798 370.66 268.758 371.92 270.213 371.92C271.653 371.92 272.628 370.66 272.628 369.13C272.628 367.585 271.653 366.325 270.213 366.325C268.758 366.325 267.798 367.585 267.798 369.13ZM276.917 373L274.697 365.245H276.302L277.427 369.64C277.577 370.24 277.667 370.765 277.817 371.38H277.832C277.982 370.78 278.072 370.24 278.222 369.61L279.362 365.245H281.282L282.407 369.61C282.557 370.18 282.692 370.81 282.827 371.395H282.842C282.977 370.825 283.112 370.21 283.247 369.61L284.357 365.245H285.947L283.712 373H281.927L280.712 368.455L280.322 366.85H280.292C280.172 367.39 280.067 367.885 279.917 368.455L278.702 373H276.917ZM293.946 362.185C295.956 362.185 297.351 363.28 297.351 364.885C297.351 366.115 296.646 367.03 295.716 367.33C296.706 367.615 297.741 368.605 297.741 370.075C297.741 372.025 296.151 373.195 293.961 373.195C291.681 373.195 290.076 372.025 290.091 370.075C290.106 368.605 291.201 367.6 292.176 367.315C291.156 366.97 290.526 366.13 290.526 364.885C290.526 363.28 291.921 362.185 293.946 362.185ZM291.621 369.97C291.621 371.065 292.431 371.965 293.946 371.965C295.446 371.965 296.226 371.065 296.226 369.955C296.226 368.905 295.446 368.005 293.946 368.005C292.431 368.005 291.621 368.905 291.621 369.97ZM292.041 365.11C292.041 365.995 292.761 366.805 293.946 366.805C295.131 366.805 295.836 366.01 295.836 365.11C295.836 364.21 295.131 363.43 293.946 363.43C292.746 363.43 292.041 364.21 292.041 365.11ZM302.925 362.185C304.935 362.185 306.33 363.28 306.33 364.885C306.33 366.115 305.625 367.03 304.695 367.33C305.685 367.615 306.72 368.605 306.72 370.075C306.72 372.025 305.13 373.195 302.94 373.195C300.66 373.195 299.055 372.025 299.07 370.075C299.085 368.605 300.18 367.6 301.155 367.315C300.135 366.97 299.505 366.13 299.505 364.885C299.505 363.28 300.9 362.185 302.925 362.185ZM300.6 369.97C300.6 371.065 301.41 371.965 302.925 371.965C304.425 371.965 305.205 371.065 305.205 369.955C305.205 368.905 304.425 368.005 302.925 368.005C301.41 368.005 300.6 368.905 300.6 369.97ZM301.02 365.11C301.02 365.995 301.74 366.805 302.925 366.805C304.11 366.805 304.815 366.01 304.815 365.11C304.815 364.21 304.11 363.43 302.925 363.43C301.725 363.43 301.02 364.21 301.02 365.11ZM309.865 365.245V366.745C310.27 365.635 311.05 365.2 312.19 365.2V366.655C312.115 366.655 311.77 366.67 311.545 366.73C310.72 366.865 309.88 367.27 309.88 369.4V373H308.335V365.245H309.865ZM314.936 363.895H313.316V362.29H314.936V363.895ZM313.286 373V365.245H314.831V373H313.286ZM321.061 367.57C320.971 366.64 320.206 366.28 319.456 366.28C318.751 366.28 318.091 366.685 318.091 367.285C318.091 367.855 318.631 368.185 319.351 368.365C319.711 368.455 320.041 368.53 320.386 368.62C321.601 368.935 322.681 369.52 322.681 370.78C322.681 372.37 321.061 373.195 319.561 373.195C318.121 373.195 316.501 372.535 316.351 370.645H317.881C318.046 371.56 318.616 371.95 319.591 371.95C320.341 371.95 321.151 371.68 321.151 370.87C321.151 370.225 320.536 370.015 319.846 369.835C319.486 369.745 319.111 369.655 318.751 369.55C317.551 369.25 316.576 368.545 316.576 367.345C316.576 365.905 318.016 365.05 319.501 365.05C321.091 365.05 322.396 365.89 322.561 367.57H321.061ZM325.746 363.895H324.126V362.29H325.746V363.895ZM324.096 373V365.245H325.641V373H324.096ZM327.641 373V365.245H329.171V366.655C329.576 365.77 330.296 365.05 331.496 365.05C333.521 365.05 334.286 366.385 334.286 368.065V373H332.756V368.32C332.756 367.03 332.261 366.37 331.196 366.37C330.086 366.37 329.186 367.315 329.186 369.295V373H327.641ZM341.778 365.245H343.353V372.325C343.353 374.74 341.613 375.94 339.648 375.94C337.653 375.94 336.183 374.92 336.003 373.285H337.533C337.683 374.305 338.478 374.695 339.648 374.695C340.863 374.695 341.778 374.035 341.778 372.415V371.485H341.763C341.433 372.37 340.698 373.09 339.243 373.09C337.068 373.09 335.643 371.425 335.643 369.055C335.643 366.7 337.053 365.05 339.243 365.05C340.683 365.05 341.478 365.845 341.763 366.565H341.778V365.245ZM337.188 369.055C337.188 370.51 337.923 371.815 339.528 371.815C341.298 371.815 341.868 370.255 341.868 369.055C341.868 367.885 341.088 366.325 339.528 366.325C337.968 366.325 337.188 367.63 337.188 369.055ZM212.035 382.05C213.415 382.05 214.345 382.965 214.615 383.73H214.63V379.29H216.19V390H214.615V388.56H214.6C214.315 389.295 213.415 390.18 212.035 390.18C209.875 390.18 208.465 388.53 208.465 386.1C208.465 383.67 209.875 382.05 212.035 382.05ZM209.995 386.1C209.995 387.705 210.79 388.905 212.35 388.905C213.955 388.905 214.705 387.57 214.705 386.1C214.705 384.66 213.94 383.325 212.35 383.325C210.835 383.325 209.995 384.51 209.995 386.1ZM219.616 382.245V383.745C220.021 382.635 220.801 382.2 221.941 382.2V383.655C221.866 383.655 221.521 383.67 221.296 383.73C220.471 383.865 219.631 384.27 219.631 386.4V390H218.086V382.245H219.616ZM226.59 390.195C224.265 390.195 222.645 388.485 222.645 386.13C222.645 383.775 224.265 382.05 226.59 382.05C228.915 382.05 230.52 383.775 230.52 386.13C230.52 388.485 228.915 390.195 226.59 390.195ZM224.175 386.13C224.175 387.66 225.135 388.92 226.59 388.92C228.03 388.92 229.005 387.66 229.005 386.13C229.005 384.585 228.03 383.325 226.59 383.325C225.135 383.325 224.175 384.585 224.175 386.13ZM236.083 382.05C238.243 382.05 239.653 383.67 239.653 386.1C239.653 388.53 238.228 390.18 236.068 390.18C234.703 390.18 233.788 389.295 233.503 388.56H233.488V393H231.928V382.245H233.488V383.73H233.503C233.773 382.965 234.688 382.05 236.083 382.05ZM233.398 386.1C233.398 387.57 234.148 388.905 235.753 388.905C237.313 388.905 238.108 387.705 238.108 386.1C238.108 384.51 237.283 383.325 235.753 383.325C234.163 383.325 233.398 384.66 233.398 386.1ZM245.299 384.57C245.209 383.64 244.444 383.28 243.694 383.28C242.989 383.28 242.329 383.685 242.329 384.285C242.329 384.855 242.869 385.185 243.589 385.365C243.949 385.455 244.279 385.53 244.624 385.62C245.839 385.935 246.919 386.52 246.919 387.78C246.919 389.37 245.299 390.195 243.799 390.195C242.359 390.195 240.739 389.535 240.589 387.645H242.119C242.284 388.56 242.854 388.95 243.829 388.95C244.579 388.95 245.389 388.68 245.389 387.87C245.389 387.225 244.774 387.015 244.084 386.835C243.724 386.745 243.349 386.655 242.989 386.55C241.789 386.25 240.814 385.545 240.814 384.345C240.814 382.905 242.254 382.05 243.739 382.05C245.329 382.05 246.634 382.89 246.799 384.57H245.299ZM251.704 390V382.245H253.234V383.55C253.414 382.83 254.164 382.05 255.229 382.05C256.429 382.05 257.149 382.53 257.509 383.565C257.974 382.56 258.649 382.05 259.714 382.05C261.619 382.05 262.429 383.385 262.429 385.065V390H260.899V385.32C260.899 384.03 260.434 383.37 259.504 383.37C258.544 383.37 257.824 384.33 257.824 386.22V390H256.309V385.32C256.309 384.03 255.994 383.37 254.929 383.37C253.609 383.37 253.249 384.72 253.249 386.295V390H251.704ZM264.198 387.18V382.245H265.728V386.925C265.728 388.215 266.223 388.875 267.288 388.875C268.398 388.875 269.298 387.93 269.298 385.95V382.245H270.843V390H269.313V388.59C268.908 389.475 268.188 390.195 266.988 390.195C264.963 390.195 264.198 388.86 264.198 387.18ZM276.969 384.57C276.879 383.64 276.114 383.28 275.364 383.28C274.659 383.28 273.999 383.685 273.999 384.285C273.999 384.855 274.539 385.185 275.259 385.365C275.619 385.455 275.949 385.53 276.294 385.62C277.509 385.935 278.589 386.52 278.589 387.78C278.589 389.37 276.969 390.195 275.469 390.195C274.029 390.195 272.409 389.535 272.259 387.645H273.789C273.954 388.56 274.524 388.95 275.499 388.95C276.249 388.95 277.059 388.68 277.059 387.87C277.059 387.225 276.444 387.015 275.754 386.835C275.394 386.745 275.019 386.655 274.659 386.55C273.459 386.25 272.484 385.545 272.484 384.345C272.484 382.905 273.924 382.05 275.409 382.05C276.999 382.05 278.304 382.89 278.469 384.57H276.969ZM281.655 380.895H280.035V379.29H281.655V380.895ZM280.005 390V382.245H281.55V390H280.005ZM290.599 387.555C290.194 389.235 288.964 390.195 287.089 390.195C284.719 390.195 283.069 388.53 283.069 386.13C283.069 383.715 284.719 382.05 287.089 382.05C289.039 382.05 290.224 383.145 290.539 384.645H289.039C288.754 383.91 288.199 383.295 287.059 383.295C285.559 383.295 284.599 384.54 284.599 386.13C284.599 387.705 285.559 388.935 287.059 388.935C288.094 388.935 288.769 388.455 289.084 387.555H290.599ZM302.388 387.705C301.953 389.31 300.633 390.195 298.848 390.195C296.538 390.195 294.993 388.53 294.993 386.085C294.993 383.745 296.613 382.05 298.833 382.05C301.518 382.05 302.493 384.165 302.508 386.265V386.55H296.478C296.598 388.035 297.528 388.935 298.833 388.935C299.793 388.935 300.603 388.56 300.873 387.705H302.388ZM296.493 385.395H300.978C300.858 384.165 300.168 383.28 298.833 383.28C297.513 383.28 296.673 384.135 296.493 385.395ZM304.619 382.245C305.309 384.33 305.999 386.37 306.689 388.455H306.704C307.334 386.475 308.069 384.315 308.744 382.245H310.394C309.434 384.825 308.489 387.42 307.529 390H305.819C304.859 387.42 303.914 384.825 302.954 382.245H304.619ZM318.194 387.705C317.759 389.31 316.439 390.195 314.654 390.195C312.344 390.195 310.799 388.53 310.799 386.085C310.799 383.745 312.419 382.05 314.639 382.05C317.324 382.05 318.299 384.165 318.314 386.265V386.55H312.284C312.404 388.035 313.334 388.935 314.639 388.935C315.599 388.935 316.409 388.56 316.679 387.705H318.194ZM312.299 385.395H316.784C316.664 384.165 315.974 383.28 314.639 383.28C313.319 383.28 312.479 384.135 312.299 385.395ZM321.32 382.245V383.745C321.725 382.635 322.505 382.2 323.645 382.2V383.655C323.57 383.655 323.225 383.67 323 383.73C322.175 383.865 321.335 384.27 321.335 386.4V390H319.79V382.245H321.32ZM325.975 382.245C326.755 384.345 327.505 386.34 328.27 388.425H328.3C328.945 386.445 329.665 384.33 330.355 382.245H331.99C330.46 386.415 330.1 387.24 328.525 391.515C328.18 392.445 327.595 393 326.545 393H325.36V391.74H326.215C326.905 391.74 327.055 391.38 327.265 390.84L327.52 390.195C326.41 387.405 325.375 384.855 324.34 382.245H325.975ZM210.325 407L208.105 399.245H209.71L210.835 403.64C210.985 404.24 211.075 404.765 211.225 405.38H211.24C211.39 404.78 211.48 404.24 211.63 403.61L212.77 399.245H214.69L215.815 403.61C215.965 404.18 216.1 404.81 216.235 405.395H216.25C216.385 404.825 216.52 404.21 216.655 403.61L217.765 399.245H219.355L217.12 407H215.335L214.12 402.455L213.73 400.85H213.7C213.58 401.39 213.475 401.885 213.325 402.455L212.11 407H210.325ZM227.315 404.705C226.88 406.31 225.56 407.195 223.775 407.195C221.465 407.195 219.92 405.53 219.92 403.085C219.92 400.745 221.54 399.05 223.76 399.05C226.445 399.05 227.42 401.165 227.435 403.265V403.55H221.405C221.525 405.035 222.455 405.935 223.76 405.935C224.72 405.935 225.53 405.56 225.8 404.705H227.315ZM221.42 402.395H225.905C225.785 401.165 225.095 400.28 223.76 400.28C222.44 400.28 221.6 401.135 221.42 402.395ZM235.826 404.705C235.391 406.31 234.071 407.195 232.286 407.195C229.976 407.195 228.431 405.53 228.431 403.085C228.431 400.745 230.051 399.05 232.271 399.05C234.956 399.05 235.931 401.165 235.946 403.265V403.55H229.916C230.036 405.035 230.966 405.935 232.271 405.935C233.231 405.935 234.041 405.56 234.311 404.705H235.826ZM229.931 402.395H234.416C234.296 401.165 233.606 400.28 232.271 400.28C230.951 400.28 230.111 401.135 229.931 402.395ZM238.967 407H237.422V396.29H238.967V402.545L242.177 399.245H244.037L240.797 402.545L244.157 407H242.267L239.732 403.595L238.967 404.33V407ZM245.198 405.14H246.953V407H245.198V405.14Z" fill="black"/>
<rect x="390.5" y="181.5" width="179" height="240" rx="7.5" fill="#AAB4A8"/>
<rect x="390.5" y="181.5" width="179" height="240" rx="7.5" stroke="black"/>
<path d="M417.277 201.283C411.64 206.841 407.106 217.288 406.594 226H402.573C403.322 215.711 407.776 206.92 412.507 201.283H398.828V197.853H417.277V201.283ZM435.249 201.243H423.817L422.635 209.088C423.975 207.866 425.985 207.157 428.232 207.157C433.87 207.157 437.654 210.744 437.654 216.815C437.654 222.176 433.633 226.512 427.681 226.512C422.24 226.512 418.298 223.201 417.825 218.51L421.846 218.471C422.28 220.993 424.566 223.122 427.641 223.122C430.755 223.122 433.633 220.796 433.633 216.815C433.633 213.149 431.662 210.586 427.523 210.586C425.039 210.586 423.384 211.966 422.477 213.543L418.417 213.149L420.585 197.853H435.249V201.243ZM445.533 210.744C447.465 210.744 448.608 208.457 448.608 205.659C448.608 202.86 447.465 200.731 445.533 200.731C443.562 200.731 442.419 202.899 442.419 205.659C442.419 208.457 443.562 210.744 445.533 210.744ZM438.91 205.698C438.91 201.638 441.157 197.814 445.533 197.814C449.87 197.814 452.117 201.638 452.117 205.698C452.117 209.719 449.87 213.701 445.533 213.701C441.157 213.701 438.91 209.719 438.91 205.698ZM448.056 226.039H451.604L462.445 197.774H458.897L448.056 226.039ZM458.7 218.392C458.7 214.371 460.947 210.547 465.283 210.547C469.62 210.547 471.906 214.371 471.906 218.392C471.906 222.452 469.62 226.434 465.283 226.434C460.947 226.434 458.7 222.413 458.7 218.392ZM462.208 218.352C462.208 221.151 463.312 223.516 465.283 223.516C467.254 223.516 468.358 221.151 468.358 218.352C468.358 215.593 467.254 213.503 465.283 213.503C463.312 213.503 462.208 215.593 462.208 218.352Z" fill="black"/>
<path d="M403.1 382.05C405.26 382.05 406.67 383.67 406.67 386.1C406.67 388.53 405.245 390.18 403.085 390.18C401.72 390.18 400.805 389.295 400.52 388.56H400.505V390H398.945V379.29H400.505V383.73H400.52C400.79 382.965 401.705 382.05 403.1 382.05ZM400.415 386.1C400.415 387.57 401.165 388.905 402.77 388.905C404.33 388.905 405.125 387.705 405.125 386.1C405.125 384.51 404.3 383.325 402.77 383.325C401.18 383.325 400.415 384.66 400.415 386.1ZM415.001 387.705C414.566 389.31 413.246 390.195 411.461 390.195C409.151 390.195 407.606 388.53 407.606 386.085C407.606 383.745 409.226 382.05 411.446 382.05C414.131 382.05 415.106 384.165 415.121 386.265V386.55H409.091C409.211 388.035 410.141 388.935 411.446 388.935C412.406 388.935 413.216 388.56 413.486 387.705H415.001ZM409.106 385.395H413.591C413.471 384.165 412.781 383.28 411.446 383.28C410.126 383.28 409.286 384.135 409.106 385.395ZM416.596 379.29H418.141V390H416.596V379.29ZM421.674 380.895H420.054V379.29H421.674V380.895ZM420.024 390V382.245H421.569V390H420.024ZM430.484 387.705C430.049 389.31 428.729 390.195 426.944 390.195C424.634 390.195 423.089 388.53 423.089 386.085C423.089 383.745 424.709 382.05 426.929 382.05C429.614 382.05 430.589 384.165 430.604 386.265V386.55H424.574C424.694 388.035 425.624 388.935 426.929 388.935C427.889 388.935 428.699 388.56 428.969 387.705H430.484ZM424.589 385.395H429.074C428.954 384.165 428.264 383.28 426.929 383.28C425.609 383.28 424.769 384.135 424.589 385.395ZM432.714 382.245C433.404 384.33 434.094 386.37 434.784 388.455H434.799C435.429 386.475 436.164 384.315 436.839 382.245H438.489C437.529 384.825 436.584 387.42 435.624 390H433.914C432.954 387.42 432.009 384.825 431.049 382.245H432.714ZM446.29 387.705C445.855 389.31 444.535 390.195 442.75 390.195C440.44 390.195 438.895 388.53 438.895 386.085C438.895 383.745 440.515 382.05 442.735 382.05C445.42 382.05 446.395 384.165 446.41 386.265V386.55H440.38C440.5 388.035 441.43 388.935 442.735 388.935C443.695 388.935 444.505 388.56 444.775 387.705H446.29ZM440.395 385.395H444.88C444.76 384.165 444.07 383.28 442.735 383.28C441.415 383.28 440.575 384.135 440.395 385.395ZM453.115 387.585C453.115 388.335 453.43 388.755 454.105 388.755H454.63V390.015H453.88C452.23 390.015 451.6 389.055 451.6 387.735V383.475H450.415V382.245H451.6V380.445L453.115 379.77V382.245H454.615V383.475H453.115V387.585ZM455.898 390V379.29H457.428V383.655C457.833 382.77 458.553 382.05 459.753 382.05C461.778 382.05 462.543 383.385 462.543 385.065V390H461.013V385.32C461.013 384.03 460.518 383.37 459.453 383.37C458.343 383.37 457.443 384.315 457.443 386.295V390H455.898ZM471.295 387.705C470.86 389.31 469.54 390.195 467.755 390.195C465.445 390.195 463.9 388.53 463.9 386.085C463.9 383.745 465.52 382.05 467.74 382.05C470.425 382.05 471.4 384.165 471.415 386.265V386.55H465.385C465.505 388.035 466.435 388.935 467.74 388.935C468.7 388.935 469.51 388.56 469.78 387.705H471.295ZM465.4 385.395H469.885C469.765 384.165 469.075 383.28 467.74 383.28C466.42 383.28 465.58 384.135 465.4 385.395ZM480.414 382.05C482.574 382.05 483.984 383.67 483.984 386.1C483.984 388.53 482.559 390.18 480.399 390.18C479.034 390.18 478.119 389.295 477.834 388.56H477.819V390H476.259V379.29H477.819V383.73H477.834C478.104 382.965 479.019 382.05 480.414 382.05ZM477.729 386.1C477.729 387.57 478.479 388.905 480.084 388.905C481.644 388.905 482.439 387.705 482.439 386.1C482.439 384.51 481.614 383.325 480.084 383.325C478.494 383.325 477.729 384.66 477.729 386.1ZM486.93 382.245V383.745C487.335 382.635 488.115 382.2 489.255 382.2V383.655C489.18 383.655 488.835 383.67 488.61 383.73C487.785 383.865 486.945 384.27 486.945 386.4V390H485.4V382.245H486.93ZM490.116 384.6C490.296 383.415 491.286 382.035 493.311 382.035C496.026 382.035 496.506 383.73 496.506 385.17V388.32C496.506 388.905 496.551 389.58 496.626 390H495.021C494.991 389.67 494.991 389.355 494.991 388.98V388.65H494.976C494.751 389.265 494.106 390.195 492.456 390.195C490.656 390.195 489.741 389.055 489.741 387.885C489.741 385.71 492.441 385.59 493.581 385.395C494.586 385.23 494.976 384.99 494.976 384.345C494.976 383.7 494.376 383.28 493.341 383.28C492.456 383.28 491.796 383.79 491.616 384.6H490.116ZM491.271 387.855C491.271 388.53 491.871 388.98 492.801 388.98C493.911 388.98 495.006 388.275 495.006 386.4V385.455C494.841 385.92 494.466 386.355 492.981 386.61C491.886 386.82 491.271 387.135 491.271 387.855ZM498.335 390V382.245H499.865V383.655C500.27 382.77 500.99 382.05 502.19 382.05C504.215 382.05 504.98 383.385 504.98 385.065V390H503.45V385.32C503.45 384.03 502.955 383.37 501.89 383.37C500.78 383.37 499.88 384.315 499.88 386.295V390H498.335ZM509.906 382.05C511.286 382.05 512.216 382.965 512.486 383.73H512.501V379.29H514.061V390H512.486V388.56H512.471C512.186 389.295 511.286 390.18 509.906 390.18C507.746 390.18 506.336 388.53 506.336 386.1C506.336 383.67 507.746 382.05 509.906 382.05ZM507.866 386.1C507.866 387.705 508.661 388.905 510.221 388.905C511.826 388.905 512.576 387.57 512.576 386.1C512.576 384.66 511.811 383.325 510.221 383.325C508.706 383.325 507.866 384.51 507.866 386.1ZM520.976 380.895H519.356V379.29H520.976V380.895ZM519.326 390V382.245H520.871V390H519.326ZM527.101 384.57C527.011 383.64 526.246 383.28 525.496 383.28C524.791 383.28 524.131 383.685 524.131 384.285C524.131 384.855 524.671 385.185 525.391 385.365C525.751 385.455 526.081 385.53 526.426 385.62C527.641 385.935 528.721 386.52 528.721 387.78C528.721 389.37 527.101 390.195 525.601 390.195C524.161 390.195 522.541 389.535 522.391 387.645H523.921C524.086 388.56 524.656 388.95 525.631 388.95C526.381 388.95 527.191 388.68 527.191 387.87C527.191 387.225 526.576 387.015 525.886 386.835C525.526 386.745 525.151 386.655 524.791 386.55C523.591 386.25 522.616 385.545 522.616 384.345C522.616 382.905 524.056 382.05 525.541 382.05C527.131 382.05 528.436 382.89 528.601 384.57H527.101ZM398.945 396.29H400.49V407H398.945V396.29ZM405.838 407.195C403.513 407.195 401.893 405.485 401.893 403.13C401.893 400.775 403.513 399.05 405.838 399.05C408.163 399.05 409.768 400.775 409.768 403.13C409.768 405.485 408.163 407.195 405.838 407.195ZM403.423 403.13C403.423 404.66 404.383 405.92 405.838 405.92C407.278 405.92 408.253 404.66 408.253 403.13C408.253 401.585 407.278 400.325 405.838 400.325C404.383 400.325 403.423 401.585 403.423 403.13ZM415.406 401.57C415.316 400.64 414.551 400.28 413.801 400.28C413.096 400.28 412.436 400.685 412.436 401.285C412.436 401.855 412.976 402.185 413.696 402.365C414.056 402.455 414.386 402.53 414.731 402.62C415.946 402.935 417.026 403.52 417.026 404.78C417.026 406.37 415.406 407.195 413.906 407.195C412.466 407.195 410.846 406.535 410.696 404.645H412.226C412.391 405.56 412.961 405.95 413.936 405.95C414.686 405.95 415.496 405.68 415.496 404.87C415.496 404.225 414.881 404.015 414.191 403.835C413.831 403.745 413.456 403.655 413.096 403.55C411.896 403.25 410.921 402.545 410.921 401.345C410.921 399.905 412.361 399.05 413.846 399.05C415.436 399.05 416.741 399.89 416.906 401.57H415.406ZM420.092 397.895H418.472V396.29H420.092V397.895ZM418.442 407V399.245H419.987V407H418.442ZM421.987 407V399.245H423.517V400.655C423.922 399.77 424.642 399.05 425.842 399.05C427.867 399.05 428.632 400.385 428.632 402.065V407H427.102V402.32C427.102 401.03 426.607 400.37 425.542 400.37C424.432 400.37 423.532 401.315 423.532 403.295V407H421.987ZM436.123 399.245H437.698V406.325C437.698 408.74 435.958 409.94 433.993 409.94C431.998 409.94 430.528 408.92 430.348 407.285H431.878C432.028 408.305 432.823 408.695 433.993 408.695C435.208 408.695 436.123 408.035 436.123 406.415V405.485H436.108C435.778 406.37 435.043 407.09 433.588 407.09C431.413 407.09 429.988 405.425 429.988 403.055C429.988 400.7 431.398 399.05 433.588 399.05C435.028 399.05 435.823 399.845 436.108 400.565H436.123V399.245ZM431.533 403.055C431.533 404.51 432.268 405.815 433.873 405.815C435.643 405.815 436.213 404.255 436.213 403.055C436.213 401.885 435.433 400.325 433.873 400.325C432.313 400.325 431.533 401.63 431.533 403.055ZM444.494 399.245V400.745C444.899 399.635 445.679 399.2 446.819 399.2V400.655C446.744 400.655 446.399 400.67 446.174 400.73C445.349 400.865 444.509 401.27 444.509 403.4V407H442.964V399.245H444.494ZM454.918 404.705C454.483 406.31 453.163 407.195 451.378 407.195C449.068 407.195 447.523 405.53 447.523 403.085C447.523 400.745 449.143 399.05 451.363 399.05C454.048 399.05 455.023 401.165 455.038 403.265V403.55H449.008C449.128 405.035 450.058 405.935 451.363 405.935C452.323 405.935 453.133 405.56 453.403 404.705H454.918ZM449.023 402.395H453.508C453.388 401.165 452.698 400.28 451.363 400.28C450.043 400.28 449.203 401.135 449.023 402.395ZM456.513 396.29H458.058V407H456.513V396.29ZM466.856 404.705C466.421 406.31 465.101 407.195 463.316 407.195C461.006 407.195 459.461 405.53 459.461 403.085C459.461 400.745 461.081 399.05 463.301 399.05C465.986 399.05 466.961 401.165 466.976 403.265V403.55H460.946C461.066 405.035 461.996 405.935 463.301 405.935C464.261 405.935 465.071 405.56 465.341 404.705H466.856ZM460.961 402.395H465.446C465.326 401.165 464.636 400.28 463.301 400.28C461.981 400.28 461.141 401.135 460.961 402.395ZM469.086 399.245C469.776 401.33 470.466 403.37 471.156 405.455H471.171C471.801 403.475 472.536 401.315 473.211 399.245H474.861C473.901 401.825 472.956 404.42 471.996 407H470.286C469.326 404.42 468.381 401.825 467.421 399.245H469.086ZM475.57 401.6C475.75 400.415 476.74 399.035 478.765 399.035C481.48 399.035 481.96 400.73 481.96 402.17V405.32C481.96 405.905 482.005 406.58 482.08 407H480.475C480.445 406.67 480.445 406.355 480.445 405.98V405.65H480.43C480.205 406.265 479.56 407.195 477.91 407.195C476.11 407.195 475.195 406.055 475.195 404.885C475.195 402.71 477.895 402.59 479.035 402.395C480.04 402.23 480.43 401.99 480.43 401.345C480.43 400.7 479.83 400.28 478.795 400.28C477.91 400.28 477.25 400.79 477.07 401.6H475.57ZM476.725 404.855C476.725 405.53 477.325 405.98 478.255 405.98C479.365 405.98 480.46 405.275 480.46 403.4V402.455C480.295 402.92 479.92 403.355 478.435 403.61C477.34 403.82 476.725 404.135 476.725 404.855ZM483.789 407V399.245H485.319V400.655C485.724 399.77 486.444 399.05 487.644 399.05C489.669 399.05 490.434 400.385 490.434 402.065V407H488.904V402.32C488.904 401.03 488.409 400.37 487.344 400.37C486.234 400.37 485.334 401.315 485.334 403.295V407H483.789ZM499.32 404.555C498.915 406.235 497.685 407.195 495.81 407.195C493.44 407.195 491.79 405.53 491.79 403.13C491.79 400.715 493.44 399.05 495.81 399.05C497.76 399.05 498.945 400.145 499.26 401.645H497.76C497.475 400.91 496.92 400.295 495.78 400.295C494.28 400.295 493.32 401.54 493.32 403.13C493.32 404.705 494.28 405.935 495.78 405.935C496.815 405.935 497.49 405.455 497.805 404.555H499.32ZM507.74 404.705C507.305 406.31 505.985 407.195 504.2 407.195C501.89 407.195 500.345 405.53 500.345 403.085C500.345 400.745 501.965 399.05 504.185 399.05C506.87 399.05 507.845 401.165 507.86 403.265V403.55H501.83C501.95 405.035 502.88 405.935 504.185 405.935C505.145 405.935 505.955 405.56 506.225 404.705H507.74ZM501.845 402.395H506.33C506.21 401.165 505.52 400.28 504.185 400.28C502.865 400.28 502.025 401.135 501.845 402.395ZM508.939 405.14H510.694V407H508.939V405.14Z" fill="black"/>
<rect x="580" y="72" width="180" height="350" rx="8" fill="black"/>
<path d="M589.735 98.3143C589.735 92.7164 594.071 88.5772 599.905 88.5772C602.901 88.5772 605.582 89.681 607.395 91.6521C609.485 93.9779 610.115 97.6835 610.115 102.532C610.115 110.574 607.198 117.512 600.024 117.512C594.544 117.512 591.193 114.398 590.484 110.456H594.505C595.017 112.191 596.397 114.122 599.826 114.122C604.005 114.122 605.621 110.417 605.976 105.055C604.872 106.435 602.546 107.933 599.353 107.933C593.795 107.933 589.735 103.833 589.735 98.3143ZM593.756 98.196C593.756 101.665 596.357 104.503 599.866 104.503C603.493 104.503 605.976 101.429 605.976 98.196C605.976 94.6087 603.295 91.9674 599.866 91.9674C596.476 91.9674 593.756 94.7664 593.756 98.196ZM612.586 96.3432C612.783 91.7703 615.937 88.656 621.259 88.656C626.344 88.656 629.537 91.4944 629.537 95.7913C629.537 98.8662 628.355 100.601 626.187 101.902C629.143 103.084 630.838 105.213 630.878 108.958C630.878 113.767 627.33 117.512 621.259 117.512C615.503 117.512 611.995 114.516 611.404 109.313V108.879H615.582V109.195C615.898 112.467 618.066 114.122 621.259 114.122C624.846 114.122 626.857 111.796 626.857 108.761C626.857 105.292 623.94 103.952 620.51 103.952H619.288V100.285C619.958 100.285 620.471 100.246 621.062 100.207C623.782 100.009 625.517 98.8268 625.517 96.2249C625.517 93.5837 623.861 92.0857 621.141 92.0857C618.381 92.0857 616.962 93.6626 616.647 95.7519L616.568 96.3432H612.586ZM638.767 101.744C640.699 101.744 641.842 99.4575 641.842 96.6586C641.842 93.8597 640.699 91.7309 638.767 91.7309C636.796 91.7309 635.653 93.8991 635.653 96.6586C635.653 99.4575 636.796 101.744 638.767 101.744ZM632.144 96.698C632.144 92.6376 634.391 88.8137 638.767 88.8137C643.103 88.8137 645.35 92.6376 645.35 96.698C645.35 100.719 643.103 104.701 638.767 104.701C634.391 104.701 632.144 100.719 632.144 96.698ZM641.29 117.039H644.838L655.679 88.7743H652.131L641.29 117.039ZM651.934 109.392C651.934 105.371 654.181 101.547 658.517 101.547C662.853 101.547 665.14 105.371 665.14 109.392C665.14 113.452 662.853 117.434 658.517 117.434C654.181 117.434 651.934 113.413 651.934 109.392ZM655.442 109.352C655.442 112.151 656.546 114.516 658.517 114.516C660.488 114.516 661.592 112.151 661.592 109.352C661.592 106.593 660.488 104.503 658.517 104.503C656.546 104.503 655.442 106.593 655.442 109.352Z" fill="white"/>
<path d="M595.995 387.555C595.59 389.235 594.36 390.195 592.485 390.195C590.115 390.195 588.465 388.53 588.465 386.13C588.465 383.715 590.115 382.05 592.485 382.05C594.435 382.05 595.62 383.145 595.935 384.645H594.435C594.15 383.91 593.595 383.295 592.455 383.295C590.955 383.295 589.995 384.54 589.995 386.13C589.995 387.705 590.955 388.935 592.455 388.935C593.49 388.935 594.165 388.455 594.48 387.555H595.995ZM600.965 390.195C598.64 390.195 597.02 388.485 597.02 386.13C597.02 383.775 598.64 382.05 600.965 382.05C603.29 382.05 604.895 383.775 604.895 386.13C604.895 388.485 603.29 390.195 600.965 390.195ZM598.55 386.13C598.55 387.66 599.51 388.92 600.965 388.92C602.405 388.92 603.38 387.66 603.38 386.13C603.38 384.585 602.405 383.325 600.965 383.325C599.51 383.325 598.55 384.585 598.55 386.13ZM606.243 387.18V382.245H607.773V386.925C607.773 388.215 608.268 388.875 609.333 388.875C610.443 388.875 611.343 387.93 611.343 385.95V382.245H612.888V390H611.358V388.59C610.953 389.475 610.233 390.195 609.033 390.195C607.008 390.195 606.243 388.86 606.243 387.18ZM614.785 379.29H616.33V390H614.785V379.29ZM621.303 382.05C622.683 382.05 623.613 382.965 623.883 383.73H623.898V379.29H625.458V390H623.883V388.56H623.868C623.583 389.295 622.683 390.18 621.303 390.18C619.143 390.18 617.733 388.53 617.733 386.1C617.733 383.67 619.143 382.05 621.303 382.05ZM619.263 386.1C619.263 387.705 620.058 388.905 621.618 388.905C623.223 388.905 623.973 387.57 623.973 386.1C623.973 384.66 623.208 383.325 621.618 383.325C620.103 383.325 619.263 384.51 619.263 386.1ZM630.722 390V382.245H632.252V383.655C632.657 382.77 633.377 382.05 634.577 382.05C636.602 382.05 637.367 383.385 637.367 385.065V390H635.837V385.32C635.837 384.03 635.342 383.37 634.277 383.37C633.167 383.37 632.267 384.315 632.267 386.295V390H630.722ZM639.174 384.6C639.354 383.415 640.344 382.035 642.369 382.035C645.084 382.035 645.564 383.73 645.564 385.17V388.32C645.564 388.905 645.609 389.58 645.684 390H644.079C644.049 389.67 644.049 389.355 644.049 388.98V388.65H644.034C643.809 389.265 643.164 390.195 641.514 390.195C639.714 390.195 638.799 389.055 638.799 387.885C638.799 385.71 641.499 385.59 642.639 385.395C643.644 385.23 644.034 384.99 644.034 384.345C644.034 383.7 643.434 383.28 642.399 383.28C641.514 383.28 640.854 383.79 640.674 384.6H639.174ZM640.329 387.855C640.329 388.53 640.929 388.98 641.859 388.98C642.969 388.98 644.064 388.275 644.064 386.4V385.455C643.899 385.92 643.524 386.355 642.039 386.61C640.944 386.82 640.329 387.135 640.329 387.855ZM647.392 390V382.245H648.922V383.55C649.102 382.83 649.852 382.05 650.917 382.05C652.117 382.05 652.837 382.53 653.197 383.565C653.662 382.56 654.337 382.05 655.402 382.05C657.307 382.05 658.117 383.385 658.117 385.065V390H656.587V385.32C656.587 384.03 656.122 383.37 655.192 383.37C654.232 383.37 653.512 384.33 653.512 386.22V390H651.997V385.32C651.997 384.03 651.682 383.37 650.617 383.37C649.297 383.37 648.937 384.72 648.937 386.295V390H647.392ZM666.861 387.705C666.426 389.31 665.106 390.195 663.321 390.195C661.011 390.195 659.466 388.53 659.466 386.085C659.466 383.745 661.086 382.05 663.306 382.05C665.991 382.05 666.966 384.165 666.981 386.265V386.55H660.951C661.071 388.035 662.001 388.935 663.306 388.935C664.266 388.935 665.076 388.56 665.346 387.705H666.861ZM660.966 385.395H665.451C665.331 384.165 664.641 383.28 663.306 383.28C661.986 383.28 661.146 384.135 660.966 385.395ZM675.291 390.195C672.966 390.195 671.346 388.485 671.346 386.13C671.346 383.775 672.966 382.05 675.291 382.05C677.616 382.05 679.221 383.775 679.221 386.13C679.221 388.485 677.616 390.195 675.291 390.195ZM672.876 386.13C672.876 387.66 673.836 388.92 675.291 388.92C676.731 388.92 677.706 387.66 677.706 386.13C677.706 384.585 676.731 383.325 675.291 383.325C673.836 383.325 672.876 384.585 672.876 386.13ZM680.63 390V382.245H682.16V383.655C682.565 382.77 683.285 382.05 684.485 382.05C686.51 382.05 687.275 383.385 687.275 385.065V390H685.745V385.32C685.745 384.03 685.25 383.37 684.185 383.37C683.075 383.37 682.175 384.315 682.175 386.295V390H680.63ZM689.111 379.29H690.656V390H689.111V379.29ZM693.334 382.245C694.114 384.345 694.864 386.34 695.629 388.425H695.659C696.304 386.445 697.024 384.33 697.714 382.245H699.349C697.819 386.415 697.459 387.24 695.884 391.515C695.539 392.445 694.954 393 693.904 393H692.719V391.74H693.574C694.264 391.74 694.414 391.38 694.624 390.84L694.879 390.195C693.769 387.405 692.734 384.855 691.699 382.245H693.334ZM707.884 390H706.354V382.2H703.774V381.12C705.214 381.12 706.249 380.85 706.609 379.29H707.884V390ZM710.487 385.47H715.422V386.73H710.487V385.47ZM716.766 382.725C716.766 380.46 718.176 379.215 720.396 379.215C722.421 379.215 723.816 380.43 723.816 382.335C723.816 384.18 722.946 384.885 721.656 385.875C720.426 386.835 719.076 387.525 718.626 388.695H723.921V390H716.616C716.736 387.645 718.176 386.49 719.751 385.44C721.476 384.285 722.286 383.715 722.286 382.41C722.286 381.375 721.596 380.49 720.336 380.49C718.971 380.49 718.311 381.48 718.296 382.725H716.766ZM588.915 401.6C589.095 400.415 590.085 399.035 592.11 399.035C594.825 399.035 595.305 400.73 595.305 402.17V405.32C595.305 405.905 595.35 406.58 595.425 407H593.82C593.79 406.67 593.79 406.355 593.79 405.98V405.65H593.775C593.55 406.265 592.905 407.195 591.255 407.195C589.455 407.195 588.54 406.055 588.54 404.885C588.54 402.71 591.24 402.59 592.38 402.395C593.385 402.23 593.775 401.99 593.775 401.345C593.775 400.7 593.175 400.28 592.14 400.28C591.255 400.28 590.595 400.79 590.415 401.6H588.915ZM590.07 404.855C590.07 405.53 590.67 405.98 591.6 405.98C592.71 405.98 593.805 405.275 593.805 403.4V402.455C593.64 402.92 593.265 403.355 591.78 403.61C590.685 403.82 590.07 404.135 590.07 404.855ZM598.663 399.245V400.745C599.068 399.635 599.848 399.2 600.988 399.2V400.655C600.913 400.655 600.568 400.67 600.343 400.73C599.518 400.865 598.678 401.27 598.678 403.4V407H597.133V399.245H598.663ZM604.413 404.585C604.413 405.335 604.728 405.755 605.403 405.755H605.928V407.015H605.178C603.528 407.015 602.898 406.055 602.898 404.735V400.475H601.713V399.245H602.898V397.445L604.413 396.77V399.245H605.913V400.475H604.413V404.585ZM608.993 397.895H607.373V396.29H608.993V397.895ZM607.343 407V399.245H608.888V407H607.343ZM615.118 401.57C615.028 400.64 614.263 400.28 613.513 400.28C612.808 400.28 612.148 400.685 612.148 401.285C612.148 401.855 612.688 402.185 613.408 402.365C613.768 402.455 614.098 402.53 614.443 402.62C615.658 402.935 616.738 403.52 616.738 404.78C616.738 406.37 615.118 407.195 613.618 407.195C612.178 407.195 610.558 406.535 610.408 404.645H611.938C612.103 405.56 612.673 405.95 613.648 405.95C614.398 405.95 615.208 405.68 615.208 404.87C615.208 404.225 614.593 404.015 613.903 403.835C613.543 403.745 613.168 403.655 612.808 403.55C611.608 403.25 610.633 402.545 610.633 401.345C610.633 399.905 612.073 399.05 613.558 399.05C615.148 399.05 616.453 399.89 616.618 401.57H615.118ZM620.043 404.585C620.043 405.335 620.358 405.755 621.033 405.755H621.558V407.015H620.808C619.158 407.015 618.528 406.055 618.528 404.735V400.475H617.343V399.245H618.528V397.445L620.043 396.77V399.245H621.543V400.475H620.043V404.585ZM627.203 401.57C627.113 400.64 626.348 400.28 625.598 400.28C624.893 400.28 624.233 400.685 624.233 401.285C624.233 401.855 624.773 402.185 625.493 402.365C625.853 402.455 626.183 402.53 626.528 402.62C627.743 402.935 628.823 403.52 628.823 404.78C628.823 406.37 627.203 407.195 625.703 407.195C624.263 407.195 622.643 406.535 622.493 404.645H624.023C624.188 405.56 624.758 405.95 625.733 405.95C626.483 405.95 627.293 405.68 627.293 404.87C627.293 404.225 626.678 404.015 625.988 403.835C625.628 403.745 625.253 403.655 624.893 403.55C623.693 403.25 622.718 402.545 622.718 401.345C622.718 399.905 624.158 399.05 625.643 399.05C627.233 399.05 628.538 399.89 628.703 401.57H627.203ZM637.073 407.195C634.748 407.195 633.128 405.485 633.128 403.13C633.128 400.775 634.748 399.05 637.073 399.05C639.398 399.05 641.003 400.775 641.003 403.13C641.003 405.485 639.398 407.195 637.073 407.195ZM634.658 403.13C634.658 404.66 635.618 405.92 637.073 405.92C638.513 405.92 639.488 404.66 639.488 403.13C639.488 401.585 638.513 400.325 637.073 400.325C635.618 400.325 634.658 401.585 634.658 403.13ZM642.412 407V399.245H643.942V400.655C644.347 399.77 645.067 399.05 646.267 399.05C648.292 399.05 649.057 400.385 649.057 402.065V407H647.527V402.32C647.527 401.03 647.032 400.37 645.967 400.37C644.857 400.37 643.957 401.315 643.957 403.295V407H642.412ZM656.122 404.585C656.122 405.335 656.437 405.755 657.112 405.755H657.637V407.015H656.887C655.237 407.015 654.607 406.055 654.607 404.735V400.475H653.422V399.245H654.607V397.445L656.122 396.77V399.245H657.622V400.475H656.122V404.585ZM658.906 407V396.29H660.436V400.655C660.841 399.77 661.561 399.05 662.761 399.05C664.786 399.05 665.551 400.385 665.551 402.065V407H664.021V402.32C664.021 401.03 663.526 400.37 662.461 400.37C661.351 400.37 660.451 401.315 660.451 403.295V407H658.906ZM674.302 404.705C673.867 406.31 672.547 407.195 670.762 407.195C668.452 407.195 666.907 405.53 666.907 403.085C666.907 400.745 668.527 399.05 670.747 399.05C673.432 399.05 674.407 401.165 674.422 403.265V403.55H668.392C668.512 405.035 669.442 405.935 670.747 405.935C671.707 405.935 672.517 405.56 672.787 404.705H674.302ZM668.407 402.395H672.892C672.772 401.165 672.082 400.28 670.747 400.28C669.427 400.28 668.587 401.135 668.407 402.395ZM680.797 399.245V400.745C681.202 399.635 681.982 399.2 683.122 399.2V400.655C683.047 400.655 682.702 400.67 682.477 400.73C681.652 400.865 680.812 401.27 680.812 403.4V407H679.267V399.245H680.797ZM687.771 407.195C685.446 407.195 683.826 405.485 683.826 403.13C683.826 400.775 685.446 399.05 687.771 399.05C690.096 399.05 691.701 400.775 691.701 403.13C691.701 405.485 690.096 407.195 687.771 407.195ZM685.356 403.13C685.356 404.66 686.316 405.92 687.771 405.92C689.211 405.92 690.186 404.66 690.186 403.13C690.186 401.585 689.211 400.325 687.771 400.325C686.316 400.325 685.356 401.585 685.356 403.13ZM697.34 401.57C697.25 400.64 696.485 400.28 695.735 400.28C695.03 400.28 694.37 400.685 694.37 401.285C694.37 401.855 694.91 402.185 695.63 402.365C695.99 402.455 696.32 402.53 696.665 402.62C697.88 402.935 698.96 403.52 698.96 404.78C698.96 406.37 697.34 407.195 695.84 407.195C694.4 407.195 692.78 406.535 692.63 404.645H694.16C694.325 405.56 694.895 405.95 695.87 405.95C696.62 405.95 697.43 405.68 697.43 404.87C697.43 404.225 696.815 404.015 696.125 403.835C695.765 403.745 695.39 403.655 695.03 403.55C693.83 403.25 692.855 402.545 692.855 401.345C692.855 399.905 694.295 399.05 695.78 399.05C697.37 399.05 698.675 399.89 698.84 401.57H697.34ZM702.265 404.585C702.265 405.335 702.58 405.755 703.255 405.755H703.78V407.015H703.03C701.38 407.015 700.75 406.055 700.75 404.735V400.475H699.565V399.245H700.75V397.445L702.265 396.77V399.245H703.765V400.475H702.265V404.585ZM712.081 404.705C711.646 406.31 710.326 407.195 708.541 407.195C706.231 407.195 704.686 405.53 704.686 403.085C704.686 400.745 706.306 399.05 708.526 399.05C711.211 399.05 712.186 401.165 712.201 403.265V403.55H706.171C706.291 405.035 707.221 405.935 708.526 405.935C709.486 405.935 710.296 405.56 710.566 404.705H712.081ZM706.186 402.395H710.671C710.551 401.165 709.861 400.28 708.526 400.28C707.206 400.28 706.366 401.135 706.186 402.395ZM715.206 399.245V400.745C715.611 399.635 716.391 399.2 717.531 399.2V400.655C717.456 400.655 717.111 400.67 716.886 400.73C716.061 400.865 715.221 401.27 715.221 403.4V407H713.676V399.245H715.206ZM717.952 405.14H719.707V407H717.952V405.14Z" fill="white"/>
<path d="M14.704 29H13.276V21.72H10.868V20.712C12.212 20.712 13.178 20.46 13.514 19.004H14.704V29ZM19.64 27.978C21.222 27.978 21.852 25.864 21.852 24.002C21.852 22.14 21.222 20.138 19.64 20.138C18.058 20.138 17.428 22.14 17.428 24.002C17.428 25.864 18.058 27.978 19.64 27.978ZM16 24.002C16 21.44 16.924 18.934 19.64 18.934C22.356 18.934 23.28 21.44 23.28 24.002C23.28 26.564 22.356 29.182 19.64 29.182C16.924 29.182 16 26.578 16 24.002ZM30.0756 20.208H26.0156L25.5956 22.994C26.0716 22.56 26.7856 22.308 27.5836 22.308C29.5856 22.308 30.9296 23.582 30.9296 25.738C30.9296 27.642 29.5016 29.182 27.3876 29.182C25.4556 29.182 24.0556 28.006 23.8876 26.34L25.3156 26.326C25.4696 27.222 26.2816 27.978 27.3736 27.978C28.4796 27.978 29.5016 27.152 29.5016 25.738C29.5016 24.436 28.8016 23.526 27.3316 23.526C26.4496 23.526 25.8616 24.016 25.5396 24.576L24.0976 24.436L24.8676 19.004H30.0756V20.208ZM34.2402 29V19.004H37.9082C40.1902 19.004 41.3662 20.25 41.3662 21.846C41.3662 23.288 40.4142 24.198 39.3222 24.464C40.2742 24.716 40.5682 25.486 40.9322 26.69C41.2122 27.6 41.4362 28.23 41.8002 28.874V29H40.2182C39.8822 28.342 39.6442 27.432 39.3502 26.634C39.0002 25.71 38.5802 24.996 37.3622 24.996H35.7522V29H34.2402ZM35.7522 23.736H37.8382C39.1682 23.736 39.8542 23.022 39.8542 21.902C39.8542 21.02 39.3362 20.264 37.7682 20.264H35.7522V23.736ZM48.6446 26.858C48.2386 28.356 47.0066 29.182 45.3406 29.182C43.1846 29.182 41.7426 27.628 41.7426 25.346C41.7426 23.162 43.2546 21.58 45.3266 21.58C47.8326 21.58 48.7426 23.554 48.7566 25.514V25.78H43.1286C43.2406 27.166 44.1086 28.006 45.3266 28.006C46.2226 28.006 46.9786 27.656 47.2306 26.858H48.6446ZM43.1426 24.702H47.3286C47.2166 23.554 46.5726 22.728 45.3266 22.728C44.0946 22.728 43.3106 23.526 43.1426 24.702ZM53.382 23.932C53.298 23.064 52.584 22.728 51.884 22.728C51.226 22.728 50.61 23.106 50.61 23.666C50.61 24.198 51.114 24.506 51.786 24.674C52.122 24.758 52.43 24.828 52.752 24.912C53.886 25.206 54.894 25.752 54.894 26.928C54.894 28.412 53.382 29.182 51.982 29.182C50.638 29.182 49.126 28.566 48.986 26.802H50.414C50.568 27.656 51.1 28.02 52.01 28.02C52.71 28.02 53.466 27.768 53.466 27.012C53.466 26.41 52.892 26.214 52.248 26.046C51.912 25.962 51.562 25.878 51.226 25.78C50.106 25.5 49.196 24.842 49.196 23.722C49.196 22.378 50.54 21.58 51.926 21.58C53.41 21.58 54.628 22.364 54.782 23.932H53.382ZM59.3932 21.58C61.4092 21.58 62.7252 23.092 62.7252 25.36C62.7252 27.628 61.3952 29.168 59.3792 29.168C58.1052 29.168 57.2512 28.342 56.9852 27.656H56.9712V31.8H55.5152V21.762H56.9712V23.148H56.9852C57.2372 22.434 58.0912 21.58 59.3932 21.58ZM56.8872 25.36C56.8872 26.732 57.5872 27.978 59.0852 27.978C60.5412 27.978 61.2832 26.858 61.2832 25.36C61.2832 23.876 60.5132 22.77 59.0852 22.77C57.6012 22.77 56.8872 24.016 56.8872 25.36ZM66.5805 29.182C64.4105 29.182 62.8985 27.586 62.8985 25.388C62.8985 23.19 64.4105 21.58 66.5805 21.58C68.7505 21.58 70.2485 23.19 70.2485 25.388C70.2485 27.586 68.7505 29.182 66.5805 29.182ZM64.3265 25.388C64.3265 26.816 65.2225 27.992 66.5805 27.992C67.9245 27.992 68.8345 26.816 68.8345 25.388C68.8345 23.946 67.9245 22.77 66.5805 22.77C65.2225 22.77 64.3265 23.946 64.3265 25.388ZM70.8633 29V21.762H72.2913V23.078C72.6693 22.252 73.3413 21.58 74.4613 21.58C76.3513 21.58 77.0653 22.826 77.0653 24.394V29H75.6373V24.632C75.6373 23.428 75.1753 22.812 74.1813 22.812C73.1453 22.812 72.3053 23.694 72.3053 25.542V29H70.8633ZM80.9633 21.58C82.2513 21.58 83.1193 22.434 83.3713 23.148H83.3853V19.004H84.8413V29H83.3713V27.656H83.3573C83.0913 28.342 82.2513 29.168 80.9633 29.168C78.9473 29.168 77.6313 27.628 77.6313 25.36C77.6313 23.092 78.9473 21.58 80.9633 21.58ZM79.0593 25.36C79.0593 26.858 79.8013 27.978 81.2573 27.978C82.7553 27.978 83.4553 26.732 83.4553 25.36C83.4553 24.016 82.7413 22.77 81.2573 22.77C79.8433 22.77 79.0593 23.876 79.0593 25.36ZM92.3645 26.858C91.9585 28.356 90.7265 29.182 89.0605 29.182C86.9045 29.182 85.4625 27.628 85.4625 25.346C85.4625 23.162 86.9745 21.58 89.0465 21.58C91.5525 21.58 92.4625 23.554 92.4765 25.514V25.78H86.8485C86.9605 27.166 87.8285 28.006 89.0465 28.006C89.9425 28.006 90.6985 27.656 90.9505 26.858H92.3645ZM86.8625 24.702H91.0485C90.9365 23.554 90.2925 22.728 89.0465 22.728C87.8145 22.728 87.0305 23.526 86.8625 24.702ZM93.1539 29V21.762H94.5819V23.078C94.9599 22.252 95.6319 21.58 96.7519 21.58C98.6419 21.58 99.3559 22.826 99.3559 24.394V29H97.9279V24.632C97.9279 23.428 97.4659 22.812 96.4719 22.812C95.4359 22.812 94.5959 23.694 94.5959 25.542V29H93.1539ZM102.106 26.746C102.106 27.446 102.4 27.838 103.03 27.838H103.52V29.014H102.82C101.28 29.014 100.692 28.118 100.692 26.886V22.91H99.5859V21.762H100.692V20.082L102.106 19.452V21.762H103.506V22.91H102.106V26.746ZM108.089 23.932C108.005 23.064 107.291 22.728 106.591 22.728C105.933 22.728 105.317 23.106 105.317 23.666C105.317 24.198 105.821 24.506 106.493 24.674C106.829 24.758 107.137 24.828 107.459 24.912C108.593 25.206 109.601 25.752 109.601 26.928C109.601 28.412 108.089 29.182 106.689 29.182C105.345 29.182 103.833 28.566 103.693 26.802H105.121C105.275 27.656 105.807 28.02 106.717 28.02C107.417 28.02 108.173 27.768 108.173 27.012C108.173 26.41 107.599 26.214 106.955 26.046C106.619 25.962 106.269 25.878 105.933 25.78C104.813 25.5 103.903 24.842 103.903 23.722C103.903 22.378 105.247 21.58 106.633 21.58C108.117 21.58 109.335 22.364 109.489 23.932H108.089ZM12.912 52.772C11.568 50.686 10.7 48.67 10.7 46.22C10.7 44.022 11.47 41.684 12.912 39.766H14.158C12.926 41.88 12.156 43.938 12.156 46.22C12.156 48.572 12.94 50.63 14.158 52.772H12.912ZM18.0372 50H16.6092V42.72H14.2012V41.712C15.5452 41.712 16.5112 41.46 16.8472 40.004H18.0372V50ZM25.5912 41.208H21.5312L21.1112 43.994C21.5872 43.56 22.3012 43.308 23.0992 43.308C25.1012 43.308 26.4452 44.582 26.4452 46.738C26.4452 48.642 25.0172 50.182 22.9032 50.182C20.9712 50.182 19.5712 49.006 19.4032 47.34L20.8312 47.326C20.9852 48.222 21.7972 48.978 22.8892 48.978C23.9952 48.978 25.0172 48.152 25.0172 46.738C25.0172 45.436 24.3172 44.526 22.8472 44.526C21.9652 44.526 21.3772 45.016 21.0552 45.576L19.6132 45.436L20.3832 40.004H25.5912V41.208ZM29.7559 40.004H31.2679V50H29.7559V40.004ZM32.4972 50V42.762H33.9252V44.078C34.3032 43.252 34.9752 42.58 36.0952 42.58C37.9852 42.58 38.6992 43.826 38.6992 45.394V50H37.2712V45.632C37.2712 44.428 36.8092 43.812 35.8152 43.812C34.7792 43.812 33.9392 44.694 33.9392 46.542V50H32.4972ZM41.4492 47.746C41.4492 48.446 41.7432 48.838 42.3732 48.838H42.8632V50.014H42.1632C40.6232 50.014 40.0352 49.118 40.0352 47.886V43.91H38.9292V42.762H40.0352V41.082L41.4492 40.452V42.762H42.8492V43.91H41.4492V47.746ZM49.9106 47.858C49.5046 49.356 48.2726 50.182 46.6066 50.182C44.4506 50.182 43.0086 48.628 43.0086 46.346C43.0086 44.162 44.5206 42.58 46.5926 42.58C49.0986 42.58 50.0086 44.554 50.0226 46.514V46.78H44.3946C44.5066 48.166 45.3746 49.006 46.5926 49.006C47.4886 49.006 48.2446 48.656 48.4966 47.858H49.9106ZM44.4086 45.702H48.5946C48.4826 44.554 47.8386 43.728 46.5926 43.728C45.3606 43.728 44.5766 44.526 44.4086 45.702ZM52.128 42.762V44.162C52.506 43.126 53.234 42.72 54.298 42.72V44.078C54.228 44.078 53.906 44.092 53.696 44.148C52.926 44.274 52.142 44.652 52.142 46.64V50H50.7V42.762H52.128ZM55.8012 42.762C56.4452 44.708 57.0892 46.612 57.7332 48.558H57.7472C58.3352 46.71 59.0212 44.694 59.6512 42.762H61.1912C60.2952 45.17 59.4132 47.592 58.5172 50H56.9212C56.0252 47.592 55.1432 45.17 54.2472 42.762H55.8012ZM63.0216 41.502H61.5096V40.004H63.0216V41.502ZM61.4816 50V42.762H62.9236V50H61.4816ZM70.5442 47.858C70.1382 49.356 68.9062 50.182 67.2402 50.182C65.0842 50.182 63.6422 48.628 63.6422 46.346C63.6422 44.162 65.1542 42.58 67.2262 42.58C69.7322 42.58 70.6422 44.554 70.6562 46.514V46.78H65.0282C65.1402 48.166 66.0082 49.006 67.2262 49.006C68.1222 49.006 68.8782 48.656 69.1302 47.858H70.5442ZM65.0422 45.702H69.2282C69.1162 44.554 68.4722 43.728 67.2262 43.728C65.9942 43.728 65.2102 44.526 65.0422 45.702ZM72.6079 50L70.5359 42.762H72.0339L73.0839 46.864C73.2239 47.424 73.3079 47.914 73.4479 48.488H73.4619C73.6019 47.928 73.6859 47.424 73.8259 46.836L74.8899 42.762H76.6819L77.7319 46.836C77.8719 47.368 77.9979 47.956 78.1239 48.502H78.1379C78.2639 47.97 78.3899 47.396 78.5159 46.836L79.5519 42.762H81.0359L78.9499 50H77.2839L76.1499 45.758L75.7859 44.26H75.7579C75.6459 44.764 75.5479 45.226 75.4079 45.758L74.2739 50H72.6079ZM85.273 44.932C85.189 44.064 84.475 43.728 83.775 43.728C83.117 43.728 82.501 44.106 82.501 44.666C82.501 45.198 83.005 45.506 83.677 45.674C84.013 45.758 84.321 45.828 84.643 45.912C85.777 46.206 86.785 46.752 86.785 47.928C86.785 49.412 85.273 50.182 83.873 50.182C82.529 50.182 81.017 49.566 80.877 47.802H82.305C82.459 48.656 82.991 49.02 83.901 49.02C84.601 49.02 85.357 48.768 85.357 48.012C85.357 47.41 84.783 47.214 84.139 47.046C83.803 46.962 83.453 46.878 83.117 46.78C81.997 46.5 81.087 45.842 81.087 44.722C81.087 43.378 82.431 42.58 83.817 42.58C85.301 42.58 86.519 43.364 86.673 44.932H85.273ZM93.8128 45.8H96.5708V46.976H93.8128V49.804H92.4968V46.976H89.7388V45.8H92.4968V42.972H93.8128V45.8ZM103.294 39.906C105.17 39.906 106.472 40.928 106.472 42.426C106.472 43.574 105.814 44.428 104.946 44.708C105.87 44.974 106.836 45.898 106.836 47.27C106.836 49.09 105.352 50.182 103.308 50.182C101.18 50.182 99.6825 49.09 99.6965 47.27C99.7105 45.898 100.732 44.96 101.642 44.694C100.69 44.372 100.102 43.588 100.102 42.426C100.102 40.928 101.404 39.906 103.294 39.906ZM101.124 47.172C101.124 48.194 101.88 49.034 103.294 49.034C104.694 49.034 105.422 48.194 105.422 47.158C105.422 46.178 104.694 45.338 103.294 45.338C101.88 45.338 101.124 46.178 101.124 47.172ZM101.516 42.636C101.516 43.462 102.188 44.218 103.294 44.218C104.4 44.218 105.058 43.476 105.058 42.636C105.058 41.796 104.4 41.068 103.294 41.068C102.174 41.068 101.516 41.796 101.516 42.636ZM107.377 43.364C107.377 41.376 108.917 39.906 110.989 39.906C112.053 39.906 113.005 40.298 113.649 40.998C114.391 41.824 114.615 43.14 114.615 44.862C114.615 47.718 113.579 50.182 111.031 50.182C109.085 50.182 107.895 49.076 107.643 47.676H109.071C109.253 48.292 109.743 48.978 110.961 48.978C112.445 48.978 113.019 47.662 113.145 45.758C112.753 46.248 111.927 46.78 110.793 46.78C108.819 46.78 107.377 45.324 107.377 43.364ZM108.805 43.322C108.805 44.554 109.729 45.562 110.975 45.562C112.263 45.562 113.145 44.47 113.145 43.322C113.145 42.048 112.193 41.11 110.975 41.11C109.771 41.11 108.805 42.104 108.805 43.322ZM119.082 46.864C119.152 48.278 120.118 48.978 121.49 48.978C122.638 48.978 123.548 48.46 123.548 47.326C123.548 46.164 122.568 45.954 121.308 45.576C119.656 45.072 117.99 44.568 117.948 42.636C117.92 40.718 119.572 39.766 121.378 39.766C123.38 39.766 124.738 40.746 124.92 42.818H123.394C123.212 41.614 122.61 41.026 121.364 41.026C120.314 41.026 119.46 41.46 119.46 42.58C119.46 43.546 120.384 43.924 121.686 44.302C123.366 44.792 125.06 45.184 125.06 47.298C125.06 49.342 123.31 50.238 121.49 50.238C119.306 50.238 117.64 49.174 117.556 46.864H119.082ZM125.79 47.368V42.762H127.218V47.13C127.218 48.334 127.68 48.95 128.674 48.95C129.71 48.95 130.55 48.068 130.55 46.22V42.762H131.992V50H130.564V48.684C130.186 49.51 129.514 50.182 128.394 50.182C126.504 50.182 125.79 48.936 125.79 47.368ZM134.49 42.762V44.162C134.868 43.126 135.596 42.72 136.66 42.72V44.078C136.59 44.078 136.268 44.092 136.058 44.148C135.288 44.274 134.504 44.652 134.504 46.64V50H133.062V42.762H134.49ZM138.163 42.762C138.807 44.708 139.451 46.612 140.095 48.558H140.109C140.697 46.71 141.383 44.694 142.013 42.762H143.553C142.657 45.17 141.775 47.592 140.879 50H139.283C138.387 47.592 137.505 45.17 136.609 42.762H138.163ZM150.134 47.858C149.728 49.356 148.496 50.182 146.83 50.182C144.674 50.182 143.232 48.628 143.232 46.346C143.232 44.162 144.744 42.58 146.816 42.58C149.322 42.58 150.232 44.554 150.246 46.514V46.78H144.618C144.73 48.166 145.598 49.006 146.816 49.006C147.712 49.006 148.468 48.656 148.72 47.858H150.134ZM144.632 45.702H148.818C148.706 44.554 148.062 43.728 146.816 43.728C145.584 43.728 144.8 44.526 144.632 45.702ZM151.487 42.762C152.215 44.722 152.915 46.584 153.629 48.53H153.657C154.259 46.682 154.931 44.708 155.575 42.762H157.101C155.673 46.654 155.337 47.424 153.867 51.414C153.545 52.282 152.999 52.8 152.019 52.8H150.913V51.624H151.711C152.355 51.624 152.495 51.288 152.691 50.784L152.929 50.182C151.893 47.578 150.927 45.198 149.961 42.762H151.487ZM160.013 50V40.004H163.681C165.963 40.004 167.139 41.25 167.139 42.846C167.139 44.288 166.187 45.198 165.095 45.464C166.047 45.716 166.341 46.486 166.705 47.69C166.985 48.6 167.209 49.23 167.573 49.874V50H165.991C165.655 49.342 165.417 48.432 165.123 47.634C164.773 46.71 164.353 45.996 163.135 45.996H161.525V50H160.013ZM161.525 44.736H163.611C164.941 44.736 165.627 44.022 165.627 42.902C165.627 42.02 165.109 41.264 163.541 41.264H161.525V44.736ZM174.418 47.858C174.012 49.356 172.78 50.182 171.114 50.182C168.958 50.182 167.516 48.628 167.516 46.346C167.516 44.162 169.028 42.58 171.1 42.58C173.606 42.58 174.516 44.554 174.53 46.514V46.78H168.902C169.014 48.166 169.882 49.006 171.1 49.006C171.996 49.006 172.752 48.656 173.004 47.858H174.418ZM168.916 45.702H173.102C172.99 44.554 172.346 43.728 171.1 43.728C169.868 43.728 169.084 44.526 168.916 45.702ZM179.155 44.932C179.071 44.064 178.357 43.728 177.657 43.728C176.999 43.728 176.383 44.106 176.383 44.666C176.383 45.198 176.887 45.506 177.559 45.674C177.895 45.758 178.203 45.828 178.525 45.912C179.659 46.206 180.667 46.752 180.667 47.928C180.667 49.412 179.155 50.182 177.755 50.182C176.411 50.182 174.899 49.566 174.759 47.802H176.187C176.341 48.656 176.873 49.02 177.783 49.02C178.483 49.02 179.239 48.768 179.239 48.012C179.239 47.41 178.665 47.214 178.021 47.046C177.685 46.962 177.335 46.878 176.999 46.78C175.879 46.5 174.969 45.842 174.969 44.722C174.969 43.378 176.313 42.58 177.699 42.58C179.183 42.58 180.401 43.364 180.555 44.932H179.155ZM185.166 42.58C187.182 42.58 188.498 44.092 188.498 46.36C188.498 48.628 187.168 50.168 185.152 50.168C183.878 50.168 183.024 49.342 182.758 48.656H182.744V52.8H181.288V42.762H182.744V44.148H182.758C183.01 43.434 183.864 42.58 185.166 42.58ZM182.66 46.36C182.66 47.732 183.36 48.978 184.858 48.978C186.314 48.978 187.056 47.858 187.056 46.36C187.056 44.876 186.286 43.77 184.858 43.77C183.374 43.77 182.66 45.016 182.66 46.36ZM192.354 50.182C190.184 50.182 188.672 48.586 188.672 46.388C188.672 44.19 190.184 42.58 192.354 42.58C194.524 42.58 196.022 44.19 196.022 46.388C196.022 48.586 194.524 50.182 192.354 50.182ZM190.1 46.388C190.1 47.816 190.996 48.992 192.354 48.992C193.698 48.992 194.608 47.816 194.608 46.388C194.608 44.946 193.698 43.77 192.354 43.77C190.996 43.77 190.1 44.946 190.1 46.388ZM196.636 50V42.762H198.064V44.078C198.442 43.252 199.114 42.58 200.234 42.58C202.124 42.58 202.838 43.826 202.838 45.394V50H201.41V45.632C201.41 44.428 200.948 43.812 199.954 43.812C198.918 43.812 198.078 44.694 198.078 46.542V50H196.636ZM206.736 42.58C208.024 42.58 208.892 43.434 209.144 44.148H209.158V40.004H210.614V50H209.144V48.656H209.13C208.864 49.342 208.024 50.168 206.736 50.168C204.72 50.168 203.404 48.628 203.404 46.36C203.404 44.092 204.72 42.58 206.736 42.58ZM204.832 46.36C204.832 47.858 205.574 48.978 207.03 48.978C208.528 48.978 209.228 47.732 209.228 46.36C209.228 45.016 208.514 43.77 207.03 43.77C205.616 43.77 204.832 44.876 204.832 46.36ZM218.138 47.858C217.732 49.356 216.5 50.182 214.834 50.182C212.678 50.182 211.236 48.628 211.236 46.346C211.236 44.162 212.748 42.58 214.82 42.58C217.326 42.58 218.236 44.554 218.25 46.514V46.78H212.622C212.734 48.166 213.602 49.006 214.82 49.006C215.716 49.006 216.472 48.656 216.724 47.858H218.138ZM212.636 45.702H216.822C216.71 44.554 216.066 43.728 214.82 43.728C213.588 43.728 212.804 44.526 212.636 45.702ZM218.927 50V42.762H220.355V44.078C220.733 43.252 221.405 42.58 222.525 42.58C224.415 42.58 225.129 43.826 225.129 45.394V50H223.701V45.632C223.701 44.428 223.239 43.812 222.245 43.812C221.209 43.812 220.369 44.694 220.369 46.542V50H218.927ZM227.879 47.746C227.879 48.446 228.173 48.838 228.803 48.838H229.293V50.014H228.593C227.053 50.014 226.465 49.118 226.465 47.886V43.91H225.359V42.762H226.465V41.082L227.879 40.452V42.762H229.279V43.91H227.879V47.746ZM233.862 44.932C233.778 44.064 233.064 43.728 232.364 43.728C231.706 43.728 231.09 44.106 231.09 44.666C231.09 45.198 231.594 45.506 232.266 45.674C232.602 45.758 232.91 45.828 233.232 45.912C234.366 46.206 235.374 46.752 235.374 47.928C235.374 49.412 233.862 50.182 232.462 50.182C231.118 50.182 229.606 49.566 229.466 47.802H230.894C231.048 48.656 231.58 49.02 232.49 49.02C233.19 49.02 233.946 48.768 233.946 48.012C233.946 47.41 233.372 47.214 232.728 47.046C232.392 46.962 232.042 46.878 231.706 46.78C230.586 46.5 229.676 45.842 229.676 44.722C229.676 43.378 231.02 42.58 232.406 42.58C233.89 42.58 235.108 43.364 235.262 44.932H233.862ZM234.731 52.772C235.949 50.63 236.733 48.572 236.733 46.22C236.733 43.938 235.963 41.88 234.731 39.766H235.977C237.419 41.684 238.189 44.022 238.189 46.22C238.189 48.67 237.321 50.686 235.977 52.772H234.731Z" fill="black"/>
</svg>
