<svg width="770" height="432" viewBox="0 0 770 432" fill="none" xmlns="http://www.w3.org/2000/svg">
<rect width="770" height="432" fill="#F4F4F4"/>
<rect x="10" y="10" width="510" height="412" rx="8" fill="black"/>
<path d="M21.0354 45.3432C21.2326 40.7703 24.3863 37.656 29.7081 37.656C34.7935 37.656 37.9866 40.4944 37.9866 44.7913C37.9866 47.8662 36.804 49.6007 34.6358 50.9016C37.5924 52.0843 39.2875 54.213 39.327 57.958C39.327 62.7674 35.779 66.5125 29.7081 66.5125C23.9526 66.5125 20.4441 63.5165 19.8528 58.3128V57.8792H24.0315V58.1946C24.3468 61.4665 26.515 63.1222 29.7081 63.1222C33.2955 63.1222 35.306 60.7964 35.306 57.7609C35.306 54.2919 32.3888 52.9515 28.9591 52.9515H27.7371V49.2853C28.4072 49.2853 28.9197 49.2459 29.511 49.2065C32.2311 49.0094 33.9657 47.8268 33.9657 45.2249C33.9657 42.5837 32.31 41.0857 29.5899 41.0857C26.8304 41.0857 25.4112 42.6626 25.0958 44.7519L25.017 45.3432H21.0354ZM41.853 66V37.8531H51.9843C57.0696 37.8531 60.6964 40.5338 60.6964 45.3432C60.6964 48.3787 59.0801 50.3891 56.163 51.6112V51.6506C59.3561 52.2025 61.8396 54.2524 61.8396 58.0369C61.8396 63.477 57.9369 66 51.7872 66H41.853ZM46.1105 62.4521H52.1026C55.3351 62.4521 57.5821 60.9541 57.5821 57.9186C57.5821 55.0014 55.4139 53.5034 52.2997 53.5034H46.1105V62.4521ZM46.1105 49.9949H51.2353C54.5467 49.9949 56.4783 48.5363 56.4783 45.5009C56.4783 42.426 54.5467 41.4011 51.3141 41.4011H46.1105V49.9949ZM18.3548 81.8531H22.9671L30.8908 105.467H31.0485L39.051 81.8531H43.6633L33.5714 109.961L28.3678 110L18.3548 81.8531ZM45.0098 81.8531H49.2673V110H45.0098V81.8531ZM70.9811 81.8531V85.4405H57.4595V93.9555H70.1532V97.5034H57.4595V106.413H71.0993V110H53.202V81.8531H70.9811ZM71.8431 81.8531H76.3371L80.8312 102.273L81.5013 105.467H81.5802L82.2898 102.273L86.8626 81.8531H92.5393L96.9151 102.273L97.6247 105.506H97.7035L98.4131 102.273L103.144 81.8531H107.638L102.434 102.273L100.502 110H94.7469L93.1701 102.273L89.7404 86.1107H89.6616L86.0348 102.273L84.3397 110H78.6236L76.8102 102.273L71.8431 81.8531ZM111.58 101.17C111.777 105.151 114.497 107.122 118.36 107.122C121.593 107.122 124.155 105.664 124.155 102.471C124.155 99.1985 121.395 98.6072 117.848 97.5429C113.196 96.1237 108.505 94.7045 108.386 89.2644C108.308 83.8636 112.959 81.183 118.045 81.183C123.682 81.183 127.506 83.9425 128.018 89.7768H123.721C123.209 86.3866 121.514 84.7309 118.005 84.7309C115.049 84.7309 112.644 85.953 112.644 89.1067C112.644 91.8268 115.246 92.8911 118.912 93.9555C123.642 95.3353 128.412 96.4391 128.412 102.392C128.412 108.147 123.485 110.67 118.36 110.67C112.21 110.67 107.519 107.674 107.283 101.17H111.58Z" fill="white"/>
<path d="M18.9 399.725C18.9 397.46 20.31 396.215 22.53 396.215C24.555 396.215 25.95 397.43 25.95 399.335C25.95 401.18 25.08 401.885 23.79 402.875C22.56 403.835 21.21 404.525 20.76 405.695H26.055V407H18.75C18.87 404.645 20.31 403.49 21.885 402.44C23.61 401.285 24.42 400.715 24.42 399.41C24.42 398.375 23.73 397.49 22.47 397.49C21.105 397.49 20.445 398.48 20.43 399.725H18.9ZM31.2319 405.905C32.9269 405.905 33.6019 403.64 33.6019 401.645C33.6019 399.65 32.9269 397.505 31.2319 397.505C29.5369 397.505 28.8619 399.65 28.8619 401.645C28.8619 403.64 29.5369 405.905 31.2319 405.905ZM27.3319 401.645C27.3319 398.9 28.3219 396.215 31.2319 396.215C34.1419 396.215 35.1319 398.9 35.1319 401.645C35.1319 404.39 34.1419 407.195 31.2319 407.195C28.3219 407.195 27.3319 404.405 27.3319 401.645ZM40.6474 407H39.1174V399.2H36.5374V398.12C37.9774 398.12 39.0124 397.85 39.3724 396.29H40.6474V407ZM42.786 401.885C42.786 399.065 43.821 396.185 46.701 396.185C48.906 396.185 49.896 397.37 50.211 398.87H48.681C48.441 398.225 48.141 397.475 46.791 397.475C45.036 397.475 44.496 399.29 44.346 401.015C44.841 400.34 45.741 399.83 47.001 399.83C49.086 399.83 50.541 401.435 50.541 403.49C50.541 405.62 48.891 407.195 46.686 407.195C45.516 407.195 44.481 406.7 43.791 405.92C43.011 405.035 42.786 403.7 42.786 401.885ZM44.451 403.535C44.451 404.84 45.381 405.905 46.686 405.905C47.991 405.905 49.011 404.84 49.011 403.535C49.011 402.215 48.021 401.135 46.686 401.135C45.366 401.135 44.451 402.125 44.451 403.535ZM55.7021 402.47H60.6371V403.73H55.7021V402.47ZM66.0094 399.725C66.0094 397.46 67.4194 396.215 69.6394 396.215C71.6644 396.215 73.0594 397.43 73.0594 399.335C73.0594 401.18 72.1894 401.885 70.8994 402.875C69.6694 403.835 68.3194 404.525 67.8694 405.695H73.1644V407H65.8594C65.9794 404.645 67.4194 403.49 68.9944 402.44C70.7194 401.285 71.5294 400.715 71.5294 399.41C71.5294 398.375 70.8394 397.49 69.5794 397.49C68.2144 397.49 67.5544 398.48 67.5394 399.725H66.0094ZM78.3413 405.905C80.0363 405.905 80.7113 403.64 80.7113 401.645C80.7113 399.65 80.0363 397.505 78.3413 397.505C76.6463 397.505 75.9713 399.65 75.9713 401.645C75.9713 403.64 76.6463 405.905 78.3413 405.905ZM74.4413 401.645C74.4413 398.9 75.4313 396.215 78.3413 396.215C81.2513 396.215 82.2413 398.9 82.2413 401.645C82.2413 404.39 81.2513 407.195 78.3413 407.195C75.4313 407.195 74.4413 404.405 74.4413 401.645ZM87.7568 407H86.2268V399.2H83.6468V398.12C85.0868 398.12 86.1218 397.85 86.4818 396.29H87.7568V407ZM89.8954 399.89C89.8954 397.76 91.5454 396.185 93.7654 396.185C94.9054 396.185 95.9254 396.605 96.6154 397.355C97.4104 398.24 97.6504 399.65 97.6504 401.495C97.6504 404.555 96.5404 407.195 93.8104 407.195C91.7254 407.195 90.4504 406.01 90.1804 404.51H91.7104C91.9054 405.17 92.4304 405.905 93.7354 405.905C95.3254 405.905 95.9404 404.495 96.0754 402.455C95.6554 402.98 94.7704 403.55 93.5554 403.55C91.4404 403.55 89.8954 401.99 89.8954 399.89ZM91.4254 399.845C91.4254 401.165 92.4154 402.245 93.7504 402.245C95.1304 402.245 96.0754 401.075 96.0754 399.845C96.0754 398.48 95.0554 397.475 93.7504 397.475C92.4604 397.475 91.4254 398.54 91.4254 399.845Z" fill="white"/>
<rect x="530.5" y="10.5" width="229" height="411" rx="7.5" fill="white"/>
<rect x="530.5" y="10.5" width="229" height="411" rx="7.5" stroke="black"/>
<path d="M549.984 63.1222C554.439 63.1222 556.213 57.1696 556.213 51.9266C556.213 46.6835 554.439 41.0463 549.984 41.0463C545.529 41.0463 543.756 46.6835 543.756 51.9266C543.756 57.1696 545.529 63.1222 549.984 63.1222ZM539.735 51.9266C539.735 44.7125 542.336 37.656 549.984 37.656C557.632 37.656 560.234 44.7125 560.234 51.9266C560.234 59.1407 557.632 66.5125 549.984 66.5125C542.336 66.5125 539.735 59.1801 539.735 51.9266ZM562.339 61.1118H566.951V66H562.339V61.1118ZM568.776 59.0224V55.4745L581.155 37.8531H585.018V55.6716H588.211V59.0224H585.018V66H580.997V59.0224H568.776ZM572.719 55.6716H580.997V43.924H580.879L572.719 55.6716ZM591.097 45.3432C591.295 40.7703 594.448 37.656 599.77 37.656C604.856 37.656 608.049 40.4944 608.049 44.7913C608.049 47.8662 606.866 49.6007 604.698 50.9016C607.654 52.0843 609.35 54.213 609.389 57.958C609.389 62.7674 605.841 66.5125 599.77 66.5125C594.015 66.5125 590.506 63.5165 589.915 58.3128V57.8792H594.094V58.1946C594.409 61.4665 596.577 63.1222 599.77 63.1222C603.358 63.1222 605.368 60.7964 605.368 57.7609C605.368 54.2919 602.451 52.9515 599.021 52.9515H597.799V49.2853C598.469 49.2853 598.982 49.2459 599.573 49.2065C602.293 49.0094 604.028 47.8268 604.028 45.2249C604.028 42.5837 602.372 41.0857 599.652 41.0857C596.892 41.0857 595.473 42.6626 595.158 44.7519L595.079 45.3432H591.097ZM611.915 66V37.8531H622.046C627.132 37.8531 630.758 40.5338 630.758 45.3432C630.758 48.3787 629.142 50.3891 626.225 51.6112V51.6506C629.418 52.2025 631.902 54.2524 631.902 58.0369C631.902 63.477 627.999 66 621.849 66H611.915ZM616.173 62.4521H622.165C625.397 62.4521 627.644 60.9541 627.644 57.9186C627.644 55.0014 625.476 53.5034 622.362 53.5034H616.173V62.4521ZM616.173 49.9949H621.297C624.609 49.9949 626.54 48.5363 626.54 45.5009C626.54 42.426 624.609 41.4011 621.376 41.4011H616.173V49.9949ZM538.355 81.8531H542.967L550.891 105.467H551.048L559.051 81.8531H563.663L553.571 109.961L548.368 110L538.355 81.8531ZM565.01 81.8531H569.267V110H565.01V81.8531ZM590.981 81.8531V85.4405H577.46V93.9555H590.153V97.5034H577.46V106.413H591.099V110H573.202V81.8531H590.981ZM591.843 81.8531H596.337L600.831 102.273L601.501 105.467H601.58L602.29 102.273L606.863 81.8531H612.539L616.915 102.273L617.625 105.506H617.704L618.413 102.273L623.144 81.8531H627.638L622.434 102.273L620.502 110H614.747L613.17 102.273L609.74 86.1107H609.662L606.035 102.273L604.34 110H598.624L596.81 102.273L591.843 81.8531ZM631.58 101.17C631.777 105.151 634.497 107.122 638.36 107.122C641.593 107.122 644.155 105.664 644.155 102.471C644.155 99.1985 641.395 98.6072 637.848 97.5429C633.196 96.1237 628.505 94.7045 628.386 89.2644C628.308 83.8636 632.959 81.183 638.045 81.183C643.682 81.183 647.506 83.9425 648.018 89.7768H643.721C643.209 86.3866 641.514 84.7309 638.005 84.7309C635.049 84.7309 632.644 85.953 632.644 89.1067C632.644 91.8268 635.246 92.8911 638.912 93.9555C643.642 95.3353 648.412 96.4391 648.412 102.392C648.412 108.147 643.485 110.67 638.36 110.67C632.21 110.67 627.519 107.674 627.283 101.17H631.58Z" fill="black"/>
<path d="M538.9 399.725C538.9 397.46 540.31 396.215 542.53 396.215C544.555 396.215 545.95 397.43 545.95 399.335C545.95 401.18 545.08 401.885 543.79 402.875C542.56 403.835 541.21 404.525 540.76 405.695H546.055V407H538.75C538.87 404.645 540.31 403.49 541.885 402.44C543.61 401.285 544.42 400.715 544.42 399.41C544.42 398.375 543.73 397.49 542.47 397.49C541.105 397.49 540.445 398.48 540.43 399.725H538.9ZM551.232 405.905C552.927 405.905 553.602 403.64 553.602 401.645C553.602 399.65 552.927 397.505 551.232 397.505C549.537 397.505 548.862 399.65 548.862 401.645C548.862 403.64 549.537 405.905 551.232 405.905ZM547.332 401.645C547.332 398.9 548.322 396.215 551.232 396.215C554.142 396.215 555.132 398.9 555.132 401.645C555.132 404.39 554.142 407.195 551.232 407.195C548.322 407.195 547.332 404.405 547.332 401.645ZM556.493 399.725C556.493 397.46 557.903 396.215 560.123 396.215C562.148 396.215 563.543 397.43 563.543 399.335C563.543 401.18 562.673 401.885 561.383 402.875C560.153 403.835 558.803 404.525 558.353 405.695H563.648V407H556.343C556.463 404.645 557.903 403.49 559.478 402.44C561.203 401.285 562.013 400.715 562.013 399.41C562.013 398.375 561.323 397.49 560.063 397.49C558.698 397.49 558.038 398.48 558.023 399.725H556.493ZM568.825 405.905C570.52 405.905 571.195 403.64 571.195 401.645C571.195 399.65 570.52 397.505 568.825 397.505C567.13 397.505 566.455 399.65 566.455 401.645C566.455 403.64 567.13 405.905 568.825 405.905ZM564.925 401.645C564.925 398.9 565.915 396.215 568.825 396.215C571.735 396.215 572.725 398.9 572.725 401.645C572.725 404.39 571.735 407.195 568.825 407.195C565.915 407.195 564.925 404.405 564.925 401.645ZM574.706 402.47H579.641V403.73H574.706V402.47ZM580.985 399.725C580.985 397.46 582.395 396.215 584.615 396.215C586.64 396.215 588.035 397.43 588.035 399.335C588.035 401.18 587.165 401.885 585.875 402.875C584.645 403.835 583.295 404.525 582.845 405.695H588.14V407H580.835C580.955 404.645 582.395 403.49 583.97 402.44C585.695 401.285 586.505 400.715 586.505 399.41C586.505 398.375 585.815 397.49 584.555 397.49C583.19 397.49 582.53 398.48 582.515 399.725H580.985ZM593.317 405.905C595.012 405.905 595.687 403.64 595.687 401.645C595.687 399.65 595.012 397.505 593.317 397.505C591.622 397.505 590.947 399.65 590.947 401.645C590.947 403.64 591.622 405.905 593.317 405.905ZM589.417 401.645C589.417 398.9 590.407 396.215 593.317 396.215C596.227 396.215 597.217 398.9 597.217 401.645C597.217 404.39 596.227 407.195 593.317 407.195C590.407 407.195 589.417 404.405 589.417 401.645ZM598.578 399.725C598.578 397.46 599.988 396.215 602.208 396.215C604.233 396.215 605.628 397.43 605.628 399.335C605.628 401.18 604.758 401.885 603.468 402.875C602.238 403.835 600.888 404.525 600.438 405.695H605.733V407H598.428C598.548 404.645 599.988 403.49 601.563 402.44C603.288 401.285 604.098 400.715 604.098 399.41C604.098 398.375 603.408 397.49 602.148 397.49C600.783 397.49 600.123 398.48 600.108 399.725H598.578ZM607.387 399.14C607.462 397.4 608.662 396.215 610.687 396.215C612.622 396.215 613.837 397.295 613.837 398.93C613.837 400.1 613.387 400.76 612.562 401.255C613.687 401.705 614.332 402.515 614.347 403.94C614.347 405.77 612.997 407.195 610.687 407.195C608.497 407.195 607.162 406.055 606.937 404.075V403.91H608.527V404.03C608.647 405.275 609.472 405.905 610.687 405.905C612.052 405.905 612.817 405.02 612.817 403.865C612.817 402.545 611.707 402.035 610.402 402.035H609.937V400.64C610.192 400.64 610.387 400.625 610.612 400.61C611.647 400.535 612.307 400.085 612.307 399.095C612.307 398.09 611.677 397.52 610.642 397.52C609.592 397.52 609.052 398.12 608.932 398.915L608.902 399.14H607.387Z" fill="black"/>
</svg>
